<svg xmlns="http://www.w3.org/2000/svg" version="1.1" xmlns:xlink="http://www.w3.org/1999/xlink" xmlns:svgjs="http://svgjs.dev/svgjs" viewBox="0 0 800 800" opacity="0.58"><defs><symbol id="bbburst-shape-1" viewBox="0 0 194 167"><path d="m97 0 96.129 166.5H.871L97 0Z"></path></symbol><symbol id="bbburst-shape-3" viewBox="0 0 131 127"><path d="m66 0 66 63.5L66 127 0 63.5 66 0Z"></path></symbol><symbol id="bbburst-shape-5" viewBox="0 0 145 145"><circle cx="72.5" cy="72.5" r="72.5"></circle></symbol><symbol id="bbburst-shape-10" viewBox="0 0 145 145"><circle cx="72.5" cy="72.5" r="61.5" fill="none" stroke-width="22"></circle></symbol><symbol id="bbburst-shape-11" viewBox="0 0 194 167"><path d="M10.398 161 97 11l86.603 150H10.397Z" stroke-width="11"></path></symbol><symbol id="bbburst-shape-13" viewBox="0 0 159 159"><path stroke-width="22" d="M11 11h137v137H11z"></path></symbol></defs><use xlink:href="#bbburst-shape-11" width="25.773348856227386" opacity="0.7986313001158385" transform="matrix(0.9076373997624165,0.4197551078337454,-0.4197551078337454,0.9076373997624165,917.1307963207071,-171.252110837317)" fill="none" stroke="#ffffff"></use><use xlink:href="#bbburst-shape-10" width="57.38973713177896" opacity="0.29083391936099523" transform="matrix(0.9910858371132876,0.13322486056834165,-0.13322486056834165,0.9910858371132876,407.8006014135673,173.31545317903613)" fill="none" stroke="#ffffff"></use><use xlink:href="#bbburst-shape-3" width="73.44909888382712" opacity="0.4139106211062018" transform="matrix(0.9169923192221582,-0.39890485894203853,0.39890485894203853,0.9169923192221582,100.37962162793721,-56.50546032604677)" fill="#ffffff"></use><use xlink:href="#bbburst-shape-10" width="48.09153943821083" opacity="0.662145949064285" transform="matrix(0.9601937136239382,0.2793349822651477,-0.2793349822651477,0.9601937136239382,702.024023127587,-109.16011619093916)" fill="none" stroke="#ffffff"></use><use xlink:href="#bbburst-shape-10" width="48.09363996660983" opacity="0.621606714059405" transform="matrix(0.8123840498852085,0.583122761939634,-0.583122761939634,0.8123840498852085,944.2938897594341,32.99503634466993)" fill="none" stroke="#ffffff"></use><use xlink:href="#bbburst-shape-11" width="25.16009598469915" opacity="0.7552514158415368" transform="matrix(0.9293260132324742,0.36926028913144066,-0.36926028913144066,0.9293260132324742,696.7531333481923,-325.6945993410113)" fill="none" stroke="#ffffff"></use><use xlink:href="#bbburst-shape-10" width="59.26594315648252" opacity="0.43661810824722935" transform="matrix(0.9300117747615744,0.36752972506292153,-0.36752972506292153,0.9300117747615744,541.1326907648847,34.56445075733768)" fill="none" stroke="#ffffff"></use><use xlink:href="#bbburst-shape-10" width="38.426677620986716" opacity="0.5741996452555147" transform="matrix(0.9935272529329721,-0.11359400371261766,0.11359400371261766,0.9935272529329721,313.3439474240644,-339.4371946119596)" fill="none" stroke="#ffffff"></use><use xlink:href="#bbburst-shape-11" width="70.25729611632347" opacity="0.2792316748884659" transform="matrix(0.905372221554934,0.42461881780802346,-0.42461881780802346,0.905372221554934,383.4758067102073,82.04515403788292)" fill="none" stroke="#ffffff"></use><use xlink:href="#bbburst-shape-11" width="26.88048637493891" opacity="0.8203463515266113" transform="matrix(0.9732560556007104,-0.22972298586895237,0.22972298586895237,0.9732560556007104,520.617225813331,-343.15422292350615)" fill="none" stroke="#ffffff"></use><use xlink:href="#bbburst-shape-13" width="58.53492706650734" opacity="0.3946641701079422" transform="matrix(0.9156256589075913,0.4020319051394296,-0.4020319051394296,0.9156256589075913,690.4857464870986,176.17197336501226)" fill="none" stroke="#ffffff"></use><use xlink:href="#bbburst-shape-11" width="69.15217090527292" opacity="0.5414926818725638" transform="matrix(0.8876902727911343,0.46044107070503776,-0.46044107070503776,0.8876902727911343,737.4755349836494,32.430412946400736)" fill="none" stroke="#ffffff"></use><use xlink:href="#bbburst-shape-10" width="60.20134294219381" opacity="0.2176139183889465" transform="matrix(0.9666737936759057,-0.2560112822127817,0.2560112822127817,0.9666737936759057,362.9803272100097,341.30525238876277)" fill="none" stroke="#ffffff"></use><use xlink:href="#bbburst-shape-1" width="59.530132836400206" opacity="0.26596912628381664" transform="matrix(0.9998149463957282,-0.019237280569433662,0.019237280569433662,0.9998149463957282,34.4758664429507,-305.92938670503503)" fill="#ffffff"></use><use xlink:href="#bbburst-shape-1" width="84.29435484706084" opacity="0.001079238959095341" transform="matrix(0.866609405609209,-0.49898711216789304,0.49898711216789304,0.866609405609209,-141.52209375168326,381.7111685537874)" fill="#ffffff"></use><use xlink:href="#bbburst-shape-5" width="16.845076219067522" opacity="0.9327618496497979" transform="matrix(0.8717367539365146,0.4899745216194701,-0.4899745216194701,0.8717367539365146,926.1008106466044,-328.1461896075511)" fill="#ffffff"></use><use xlink:href="#bbburst-shape-10" width="22.076225398133538" opacity="0.8778815733998094" transform="matrix(0.9912509608694036,0.13199065336410842,-0.13199065336410842,0.9912509608694036,723.3273951100049,-368.5603676554055)" fill="none" stroke="#ffffff"></use><use xlink:href="#bbburst-shape-5" width="78.61004780708032" opacity="0.21470771988942727" transform="matrix(0.984365076994093,0.1761402713589748,-0.1761402713589748,0.984365076994093,115.28662481362699,-79.20104914123715)" fill="#ffffff"></use><use xlink:href="#bbburst-shape-13" width="25.74727318421582" opacity="0.8566266141578426" transform="matrix(0.9444798539615741,-0.32856933128446986,0.32856933128446986,0.9444798539615741,605.8464151371677,-239.4020335588707)" fill="none" stroke="#ffffff"></use><use xlink:href="#bbburst-shape-5" width="48.851882264473105" opacity="0.5063557236712288" transform="matrix(0.9575876885759887,0.2881420113202779,-0.2881420113202779,0.9575876885759887,813.8497644755806,97.36704666762193)" fill="#ffffff"></use><use xlink:href="#bbburst-shape-13" width="47.20714490706755" opacity="0.4413671748617032" transform="matrix(0.9430409600165085,0.3326766413969306,-0.3326766413969306,0.9430409600165085,356.49752683516556,-315.73904320251313)" fill="none" stroke="#ffffff"></use><use xlink:href="#bbburst-shape-11" width="29.91762385955648" opacity="0.7174358353935337" transform="matrix(0.7231664016416316,-0.6906738416479188,0.6906738416479188,0.7231664016416316,453.2993063863254,-2.952213631776317)" fill="none" stroke="#ffffff"></use><use xlink:href="#bbburst-shape-11" width="20.929272193415446" opacity="0.884115972484267" transform="matrix(0.7509013516458641,-0.6604143851374032,0.6604143851374032,0.7509013516458641,443.20200544038465,-214.45237295813808)" fill="none" stroke="#ffffff"></use><use xlink:href="#bbburst-shape-5" width="16.954543713557985" opacity="0.9675538970150345" transform="matrix(0.9063129721644241,-0.4226071420202075,0.4226071420202075,0.9063129721644241,603.992014102846,-332.8476102178322)" fill="#ffffff"></use><use xlink:href="#bbburst-shape-3" width="62.32679148651461" opacity="0.2551632058404988" transform="matrix(0.835437326106442,0.5495857295710275,-0.5495857295710275,0.835437326106442,888.6083401091093,385.96719286498626)" fill="#ffffff"></use><use xlink:href="#bbburst-shape-5" width="58.10488941298346" opacity="0.5497382782640117" transform="matrix(0.9841292450874946,-0.17745317400237762,0.17745317400237762,0.9841292450874946,287.38963036257405,-209.2326208551227)" fill="#ffffff"></use><use xlink:href="#bbburst-shape-3" width="38.93793613559919" opacity="0.7638941659401168" transform="matrix(0.9785976131745485,-0.20578316619460563,0.20578316619460563,0.9785976131745485,563.2590245952866,-193.8592906653635)" fill="#ffffff"></use><use xlink:href="#bbburst-shape-1" width="17.078681035224278" opacity="0.9157025480443148" transform="matrix(0.7073020497792653,-0.7069114586552192,0.7069114586552192,0.7073020497792653,487.392346658982,-196.0062783310803)" fill="#ffffff"></use><use xlink:href="#bbburst-shape-10" width="26.65498809998494" opacity="0.8076624833830854" transform="matrix(0.9151717936141424,-0.40306400009560966,0.40306400009560966,0.9151717936141424,473.5586033086293,-244.16811573083908)" fill="none" stroke="#ffffff"></use><use xlink:href="#bbburst-shape-13" width="33.387127768858385" opacity="0.6731165027488892" transform="matrix(0.8021118753975999,0.597173793251299,-0.597173793251299,0.8021118753975999,706.5604097311453,-259.09561269386893)" fill="none" stroke="#ffffff"></use><use xlink:href="#bbburst-shape-1" width="59.944079842198924" opacity="0.12502506479560793" transform="matrix(0.9458284984886044,0.3246666774505694,-0.3246666774505694,0.9458284984886044,381.395586255772,315.6297047567194)" fill="#ffffff"></use><use xlink:href="#bbburst-shape-13" width="68.47961411227652" opacity="0.11969604804567902" transform="matrix(0.936450850058037,0.3507988104677381,-0.3507988104677381,0.936450850058037,200.19416103548164,136.46095405257194)" fill="none" stroke="#ffffff"></use><use xlink:href="#bbburst-shape-5" width="62.90607650045909" opacity="0.3539863947677978" transform="matrix(0.9988593206889709,-0.04774994735879354,0.04774994735879354,0.9988593206889709,133.4843324297889,-203.41552119011646)" fill="#ffffff"></use><use xlink:href="#bbburst-shape-1" width="62.75586968257202" opacity="0.5661558848308926" transform="matrix(0.9903433226560552,-0.13863658705610332,0.13863658705610332,0.9903433226560552,387.6801367184005,-105.22132663063502)" fill="#ffffff"></use><use xlink:href="#bbburst-shape-5" width="49.33266635038055" opacity="0.37966248475654985" transform="matrix(0.8223904145361293,0.5689235502939682,-0.5689235502939682,0.8223904145361293,920.7676187871463,271.28537516012136)" fill="#ffffff"></use><use xlink:href="#bbburst-shape-10" width="42.39503514648426" opacity="0.6919932115403724" transform="matrix(0.9344307904596805,-0.35614477090208235,0.35614477090208235,0.9344307904596805,382.42679689438535,-193.92621108770857)" fill="none" stroke="#ffffff"></use></svg>