<svg xmlns="http://www.w3.org/2000/svg" version="1.1" xmlns:xlink="http://www.w3.org/1999/xlink" xmlns:svgjs="http://svgjs.dev/svgjs" viewBox="0 0 800 800" opacity="0.46"><g stroke-width="2" stroke="hsla(0, 0%, 100%, 1.00)" fill="none" stroke-linecap="round" transform="matrix(1,0,0,1,-5,-2343.0059967041016)"><path d="M10,10C28.75,15.625,60.416666666666664,47.625,100,37C139.58333333333334,26.375,158.33333333333331,-44.333333333333336,200,-41C241.66666666666669,-37.666666666666664,258.3333333333333,47.375,300,53C341.6666666666667,58.625,358.3333333333333,-14.416666666666666,400,-14C441.6666666666667,-13.583333333333334,458.3333333333333,58.541666666666664,500,55C541.6666666666666,51.458333333333336,558.3333333333334,-27.25,600,-31C641.6666666666666,-34.75,658.3333333333334,35.958333333333336,700,37C741.6666666666666,38.041666666666664,779.1666666666666,-12.875,800,-26"></path><path d="M10,10C28.75,15.625,60.416666666666664,47.625,100,37C139.58333333333334,26.375,158.33333333333331,-44.333333333333336,200,-41C241.66666666666669,-37.666666666666664,258.3333333333333,47.375,300,53C341.6666666666667,58.625,358.3333333333333,-14.416666666666666,400,-14C441.6666666666667,-13.583333333333334,458.3333333333333,58.541666666666664,500,55C541.6666666666666,51.458333333333336,558.3333333333334,-27.25,600,-31C641.6666666666666,-34.75,658.3333333333334,35.958333333333336,700,37C741.6666666666666,38.041666666666664,779.1666666666666,-12.875,800,-26" transform="matrix(1,0,0,1,0,5472)"></path><path d="M10,10C28.75,15.625,60.416666666666664,47.625,100,37C139.58333333333334,26.375,158.33333333333331,-44.333333333333336,200,-41C241.66666666666669,-37.666666666666664,258.3333333333333,47.375,300,53C341.6666666666667,58.625,358.3333333333333,-14.416666666666666,400,-14C441.6666666666667,-13.583333333333334,458.3333333333333,58.541666666666664,500,55C541.6666666666666,51.458333333333336,558.3333333333334,-27.25,600,-31C641.6666666666666,-34.75,658.3333333333334,35.958333333333336,700,37C741.6666666666666,38.041666666666664,779.1666666666666,-12.875,800,-26" transform="matrix(1,0,0,1,0,5400)"></path><path d="M10,10C28.75,15.625,60.416666666666664,47.625,100,37C139.58333333333334,26.375,158.33333333333331,-44.333333333333336,200,-41C241.66666666666669,-37.666666666666664,258.3333333333333,47.375,300,53C341.6666666666667,58.625,358.3333333333333,-14.416666666666666,400,-14C441.6666666666667,-13.583333333333334,458.3333333333333,58.541666666666664,500,55C541.6666666666666,51.458333333333336,558.3333333333334,-27.25,600,-31C641.6666666666666,-34.75,658.3333333333334,35.958333333333336,700,37C741.6666666666666,38.041666666666664,779.1666666666666,-12.875,800,-26" transform="matrix(1,0,0,1,0,5328)"></path><path d="M10,10C28.75,15.625,60.416666666666664,47.625,100,37C139.58333333333334,26.375,158.33333333333331,-44.333333333333336,200,-41C241.66666666666669,-37.666666666666664,258.3333333333333,47.375,300,53C341.6666666666667,58.625,358.3333333333333,-14.416666666666666,400,-14C441.6666666666667,-13.583333333333334,458.3333333333333,58.541666666666664,500,55C541.6666666666666,51.458333333333336,558.3333333333334,-27.25,600,-31C641.6666666666666,-34.75,658.3333333333334,35.958333333333336,700,37C741.6666666666666,38.041666666666664,779.1666666666666,-12.875,800,-26" transform="matrix(1,0,0,1,0,5256)"></path><path d="M10,10C28.75,15.625,60.416666666666664,47.625,100,37C139.58333333333334,26.375,158.33333333333331,-44.333333333333336,200,-41C241.66666666666669,-37.666666666666664,258.3333333333333,47.375,300,53C341.6666666666667,58.625,358.3333333333333,-14.416666666666666,400,-14C441.6666666666667,-13.583333333333334,458.3333333333333,58.541666666666664,500,55C541.6666666666666,51.458333333333336,558.3333333333334,-27.25,600,-31C641.6666666666666,-34.75,658.3333333333334,35.958333333333336,700,37C741.6666666666666,38.041666666666664,779.1666666666666,-12.875,800,-26" transform="matrix(1,0,0,1,0,5184)"></path><path d="M10,10C28.75,15.625,60.416666666666664,47.625,100,37C139.58333333333334,26.375,158.33333333333331,-44.333333333333336,200,-41C241.66666666666669,-37.666666666666664,258.3333333333333,47.375,300,53C341.6666666666667,58.625,358.3333333333333,-14.416666666666666,400,-14C441.6666666666667,-13.583333333333334,458.3333333333333,58.541666666666664,500,55C541.6666666666666,51.458333333333336,558.3333333333334,-27.25,600,-31C641.6666666666666,-34.75,658.3333333333334,35.958333333333336,700,37C741.6666666666666,38.041666666666664,779.1666666666666,-12.875,800,-26" transform="matrix(1,0,0,1,0,5112)"></path><path d="M10,10C28.75,15.625,60.416666666666664,47.625,100,37C139.58333333333334,26.375,158.33333333333331,-44.333333333333336,200,-41C241.66666666666669,-37.666666666666664,258.3333333333333,47.375,300,53C341.6666666666667,58.625,358.3333333333333,-14.416666666666666,400,-14C441.6666666666667,-13.583333333333334,458.3333333333333,58.541666666666664,500,55C541.6666666666666,51.458333333333336,558.3333333333334,-27.25,600,-31C641.6666666666666,-34.75,658.3333333333334,35.958333333333336,700,37C741.6666666666666,38.041666666666664,779.1666666666666,-12.875,800,-26" transform="matrix(1,0,0,1,0,5040)"></path><path d="M10,10C28.75,15.625,60.416666666666664,47.625,100,37C139.58333333333334,26.375,158.33333333333331,-44.333333333333336,200,-41C241.66666666666669,-37.666666666666664,258.3333333333333,47.375,300,53C341.6666666666667,58.625,358.3333333333333,-14.416666666666666,400,-14C441.6666666666667,-13.583333333333334,458.3333333333333,58.541666666666664,500,55C541.6666666666666,51.458333333333336,558.3333333333334,-27.25,600,-31C641.6666666666666,-34.75,658.3333333333334,35.958333333333336,700,37C741.6666666666666,38.041666666666664,779.1666666666666,-12.875,800,-26" transform="matrix(1,0,0,1,0,4968)"></path><path d="M10,10C28.75,15.625,60.416666666666664,47.625,100,37C139.58333333333334,26.375,158.33333333333331,-44.333333333333336,200,-41C241.66666666666669,-37.666666666666664,258.3333333333333,47.375,300,53C341.6666666666667,58.625,358.3333333333333,-14.416666666666666,400,-14C441.6666666666667,-13.583333333333334,458.3333333333333,58.541666666666664,500,55C541.6666666666666,51.458333333333336,558.3333333333334,-27.25,600,-31C641.6666666666666,-34.75,658.3333333333334,35.958333333333336,700,37C741.6666666666666,38.041666666666664,779.1666666666666,-12.875,800,-26" transform="matrix(1,0,0,1,0,4896)"></path><path d="M10,10C28.75,15.625,60.416666666666664,47.625,100,37C139.58333333333334,26.375,158.33333333333331,-44.333333333333336,200,-41C241.66666666666669,-37.666666666666664,258.3333333333333,47.375,300,53C341.6666666666667,58.625,358.3333333333333,-14.416666666666666,400,-14C441.6666666666667,-13.583333333333334,458.3333333333333,58.541666666666664,500,55C541.6666666666666,51.458333333333336,558.3333333333334,-27.25,600,-31C641.6666666666666,-34.75,658.3333333333334,35.958333333333336,700,37C741.6666666666666,38.041666666666664,779.1666666666666,-12.875,800,-26" transform="matrix(1,0,0,1,0,4824)"></path><path d="M10,10C28.75,15.625,60.416666666666664,47.625,100,37C139.58333333333334,26.375,158.33333333333331,-44.333333333333336,200,-41C241.66666666666669,-37.666666666666664,258.3333333333333,47.375,300,53C341.6666666666667,58.625,358.3333333333333,-14.416666666666666,400,-14C441.6666666666667,-13.583333333333334,458.3333333333333,58.541666666666664,500,55C541.6666666666666,51.458333333333336,558.3333333333334,-27.25,600,-31C641.6666666666666,-34.75,658.3333333333334,35.958333333333336,700,37C741.6666666666666,38.041666666666664,779.1666666666666,-12.875,800,-26" transform="matrix(1,0,0,1,0,4752)"></path><path d="M10,10C28.75,15.625,60.416666666666664,47.625,100,37C139.58333333333334,26.375,158.33333333333331,-44.333333333333336,200,-41C241.66666666666669,-37.666666666666664,258.3333333333333,47.375,300,53C341.6666666666667,58.625,358.3333333333333,-14.416666666666666,400,-14C441.6666666666667,-13.583333333333334,458.3333333333333,58.541666666666664,500,55C541.6666666666666,51.458333333333336,558.3333333333334,-27.25,600,-31C641.6666666666666,-34.75,658.3333333333334,35.958333333333336,700,37C741.6666666666666,38.041666666666664,779.1666666666666,-12.875,800,-26" transform="matrix(1,0,0,1,0,4680)"></path><path d="M10,10C28.75,15.625,60.416666666666664,47.625,100,37C139.58333333333334,26.375,158.33333333333331,-44.333333333333336,200,-41C241.66666666666669,-37.666666666666664,258.3333333333333,47.375,300,53C341.6666666666667,58.625,358.3333333333333,-14.416666666666666,400,-14C441.6666666666667,-13.583333333333334,458.3333333333333,58.541666666666664,500,55C541.6666666666666,51.458333333333336,558.3333333333334,-27.25,600,-31C641.6666666666666,-34.75,658.3333333333334,35.958333333333336,700,37C741.6666666666666,38.041666666666664,779.1666666666666,-12.875,800,-26" transform="matrix(1,0,0,1,0,4608)"></path><path d="M10,10C28.75,15.625,60.416666666666664,47.625,100,37C139.58333333333334,26.375,158.33333333333331,-44.333333333333336,200,-41C241.66666666666669,-37.666666666666664,258.3333333333333,47.375,300,53C341.6666666666667,58.625,358.3333333333333,-14.416666666666666,400,-14C441.6666666666667,-13.583333333333334,458.3333333333333,58.541666666666664,500,55C541.6666666666666,51.458333333333336,558.3333333333334,-27.25,600,-31C641.6666666666666,-34.75,658.3333333333334,35.958333333333336,700,37C741.6666666666666,38.041666666666664,779.1666666666666,-12.875,800,-26" transform="matrix(1,0,0,1,0,4536)"></path><path d="M10,10C28.75,15.625,60.416666666666664,47.625,100,37C139.58333333333334,26.375,158.33333333333331,-44.333333333333336,200,-41C241.66666666666669,-37.666666666666664,258.3333333333333,47.375,300,53C341.6666666666667,58.625,358.3333333333333,-14.416666666666666,400,-14C441.6666666666667,-13.583333333333334,458.3333333333333,58.541666666666664,500,55C541.6666666666666,51.458333333333336,558.3333333333334,-27.25,600,-31C641.6666666666666,-34.75,658.3333333333334,35.958333333333336,700,37C741.6666666666666,38.041666666666664,779.1666666666666,-12.875,800,-26" transform="matrix(1,0,0,1,0,4464)"></path><path d="M10,10C28.75,15.625,60.416666666666664,47.625,100,37C139.58333333333334,26.375,158.33333333333331,-44.333333333333336,200,-41C241.66666666666669,-37.666666666666664,258.3333333333333,47.375,300,53C341.6666666666667,58.625,358.3333333333333,-14.416666666666666,400,-14C441.6666666666667,-13.583333333333334,458.3333333333333,58.541666666666664,500,55C541.6666666666666,51.458333333333336,558.3333333333334,-27.25,600,-31C641.6666666666666,-34.75,658.3333333333334,35.958333333333336,700,37C741.6666666666666,38.041666666666664,779.1666666666666,-12.875,800,-26" transform="matrix(1,0,0,1,0,4392)"></path><path d="M10,10C28.75,15.625,60.416666666666664,47.625,100,37C139.58333333333334,26.375,158.33333333333331,-44.333333333333336,200,-41C241.66666666666669,-37.666666666666664,258.3333333333333,47.375,300,53C341.6666666666667,58.625,358.3333333333333,-14.416666666666666,400,-14C441.6666666666667,-13.583333333333334,458.3333333333333,58.541666666666664,500,55C541.6666666666666,51.458333333333336,558.3333333333334,-27.25,600,-31C641.6666666666666,-34.75,658.3333333333334,35.958333333333336,700,37C741.6666666666666,38.041666666666664,779.1666666666666,-12.875,800,-26" transform="matrix(1,0,0,1,0,4320)"></path><path d="M10,10C28.75,15.625,60.416666666666664,47.625,100,37C139.58333333333334,26.375,158.33333333333331,-44.333333333333336,200,-41C241.66666666666669,-37.666666666666664,258.3333333333333,47.375,300,53C341.6666666666667,58.625,358.3333333333333,-14.416666666666666,400,-14C441.6666666666667,-13.583333333333334,458.3333333333333,58.541666666666664,500,55C541.6666666666666,51.458333333333336,558.3333333333334,-27.25,600,-31C641.6666666666666,-34.75,658.3333333333334,35.958333333333336,700,37C741.6666666666666,38.041666666666664,779.1666666666666,-12.875,800,-26" transform="matrix(1,0,0,1,0,4248)"></path><path d="M10,10C28.75,15.625,60.416666666666664,47.625,100,37C139.58333333333334,26.375,158.33333333333331,-44.333333333333336,200,-41C241.66666666666669,-37.666666666666664,258.3333333333333,47.375,300,53C341.6666666666667,58.625,358.3333333333333,-14.416666666666666,400,-14C441.6666666666667,-13.583333333333334,458.3333333333333,58.541666666666664,500,55C541.6666666666666,51.458333333333336,558.3333333333334,-27.25,600,-31C641.6666666666666,-34.75,658.3333333333334,35.958333333333336,700,37C741.6666666666666,38.041666666666664,779.1666666666666,-12.875,800,-26" transform="matrix(1,0,0,1,0,4176)"></path><path d="M10,10C28.75,15.625,60.416666666666664,47.625,100,37C139.58333333333334,26.375,158.33333333333331,-44.333333333333336,200,-41C241.66666666666669,-37.666666666666664,258.3333333333333,47.375,300,53C341.6666666666667,58.625,358.3333333333333,-14.416666666666666,400,-14C441.6666666666667,-13.583333333333334,458.3333333333333,58.541666666666664,500,55C541.6666666666666,51.458333333333336,558.3333333333334,-27.25,600,-31C641.6666666666666,-34.75,658.3333333333334,35.958333333333336,700,37C741.6666666666666,38.041666666666664,779.1666666666666,-12.875,800,-26" transform="matrix(1,0,0,1,0,4104)"></path><path d="M10,10C28.75,15.625,60.416666666666664,47.625,100,37C139.58333333333334,26.375,158.33333333333331,-44.333333333333336,200,-41C241.66666666666669,-37.666666666666664,258.3333333333333,47.375,300,53C341.6666666666667,58.625,358.3333333333333,-14.416666666666666,400,-14C441.6666666666667,-13.583333333333334,458.3333333333333,58.541666666666664,500,55C541.6666666666666,51.458333333333336,558.3333333333334,-27.25,600,-31C641.6666666666666,-34.75,658.3333333333334,35.958333333333336,700,37C741.6666666666666,38.041666666666664,779.1666666666666,-12.875,800,-26" transform="matrix(1,0,0,1,0,4032)"></path><path d="M10,10C28.75,15.625,60.416666666666664,47.625,100,37C139.58333333333334,26.375,158.33333333333331,-44.333333333333336,200,-41C241.66666666666669,-37.666666666666664,258.3333333333333,47.375,300,53C341.6666666666667,58.625,358.3333333333333,-14.416666666666666,400,-14C441.6666666666667,-13.583333333333334,458.3333333333333,58.541666666666664,500,55C541.6666666666666,51.458333333333336,558.3333333333334,-27.25,600,-31C641.6666666666666,-34.75,658.3333333333334,35.958333333333336,700,37C741.6666666666666,38.041666666666664,779.1666666666666,-12.875,800,-26" transform="matrix(1,0,0,1,0,3960)"></path><path d="M10,10C28.75,15.625,60.416666666666664,47.625,100,37C139.58333333333334,26.375,158.33333333333331,-44.333333333333336,200,-41C241.66666666666669,-37.666666666666664,258.3333333333333,47.375,300,53C341.6666666666667,58.625,358.3333333333333,-14.416666666666666,400,-14C441.6666666666667,-13.583333333333334,458.3333333333333,58.541666666666664,500,55C541.6666666666666,51.458333333333336,558.3333333333334,-27.25,600,-31C641.6666666666666,-34.75,658.3333333333334,35.958333333333336,700,37C741.6666666666666,38.041666666666664,779.1666666666666,-12.875,800,-26" transform="matrix(1,0,0,1,0,3888)"></path><path d="M10,10C28.75,15.625,60.416666666666664,47.625,100,37C139.58333333333334,26.375,158.33333333333331,-44.333333333333336,200,-41C241.66666666666669,-37.666666666666664,258.3333333333333,47.375,300,53C341.6666666666667,58.625,358.3333333333333,-14.416666666666666,400,-14C441.6666666666667,-13.583333333333334,458.3333333333333,58.541666666666664,500,55C541.6666666666666,51.458333333333336,558.3333333333334,-27.25,600,-31C641.6666666666666,-34.75,658.3333333333334,35.958333333333336,700,37C741.6666666666666,38.041666666666664,779.1666666666666,-12.875,800,-26" transform="matrix(1,0,0,1,0,3816)"></path><path d="M10,10C28.75,15.625,60.416666666666664,47.625,100,37C139.58333333333334,26.375,158.33333333333331,-44.333333333333336,200,-41C241.66666666666669,-37.666666666666664,258.3333333333333,47.375,300,53C341.6666666666667,58.625,358.3333333333333,-14.416666666666666,400,-14C441.6666666666667,-13.583333333333334,458.3333333333333,58.541666666666664,500,55C541.6666666666666,51.458333333333336,558.3333333333334,-27.25,600,-31C641.6666666666666,-34.75,658.3333333333334,35.958333333333336,700,37C741.6666666666666,38.041666666666664,779.1666666666666,-12.875,800,-26" transform="matrix(1,0,0,1,0,3744)"></path><path d="M10,10C28.75,15.625,60.416666666666664,47.625,100,37C139.58333333333334,26.375,158.33333333333331,-44.333333333333336,200,-41C241.66666666666669,-37.666666666666664,258.3333333333333,47.375,300,53C341.6666666666667,58.625,358.3333333333333,-14.416666666666666,400,-14C441.6666666666667,-13.583333333333334,458.3333333333333,58.541666666666664,500,55C541.6666666666666,51.458333333333336,558.3333333333334,-27.25,600,-31C641.6666666666666,-34.75,658.3333333333334,35.958333333333336,700,37C741.6666666666666,38.041666666666664,779.1666666666666,-12.875,800,-26" transform="matrix(1,0,0,1,0,3672)"></path><path d="M10,10C28.75,15.625,60.416666666666664,47.625,100,37C139.58333333333334,26.375,158.33333333333331,-44.333333333333336,200,-41C241.66666666666669,-37.666666666666664,258.3333333333333,47.375,300,53C341.6666666666667,58.625,358.3333333333333,-14.416666666666666,400,-14C441.6666666666667,-13.583333333333334,458.3333333333333,58.541666666666664,500,55C541.6666666666666,51.458333333333336,558.3333333333334,-27.25,600,-31C641.6666666666666,-34.75,658.3333333333334,35.958333333333336,700,37C741.6666666666666,38.041666666666664,779.1666666666666,-12.875,800,-26" transform="matrix(1,0,0,1,0,3600)"></path><path d="M10,10C28.75,15.625,60.416666666666664,47.625,100,37C139.58333333333334,26.375,158.33333333333331,-44.333333333333336,200,-41C241.66666666666669,-37.666666666666664,258.3333333333333,47.375,300,53C341.6666666666667,58.625,358.3333333333333,-14.416666666666666,400,-14C441.6666666666667,-13.583333333333334,458.3333333333333,58.541666666666664,500,55C541.6666666666666,51.458333333333336,558.3333333333334,-27.25,600,-31C641.6666666666666,-34.75,658.3333333333334,35.958333333333336,700,37C741.6666666666666,38.041666666666664,779.1666666666666,-12.875,800,-26" transform="matrix(1,0,0,1,0,3528)"></path><path d="M10,10C28.75,15.625,60.416666666666664,47.625,100,37C139.58333333333334,26.375,158.33333333333331,-44.333333333333336,200,-41C241.66666666666669,-37.666666666666664,258.3333333333333,47.375,300,53C341.6666666666667,58.625,358.3333333333333,-14.416666666666666,400,-14C441.6666666666667,-13.583333333333334,458.3333333333333,58.541666666666664,500,55C541.6666666666666,51.458333333333336,558.3333333333334,-27.25,600,-31C641.6666666666666,-34.75,658.3333333333334,35.958333333333336,700,37C741.6666666666666,38.041666666666664,779.1666666666666,-12.875,800,-26" transform="matrix(1,0,0,1,0,3456)"></path><path d="M10,10C28.75,15.625,60.416666666666664,47.625,100,37C139.58333333333334,26.375,158.33333333333331,-44.333333333333336,200,-41C241.66666666666669,-37.666666666666664,258.3333333333333,47.375,300,53C341.6666666666667,58.625,358.3333333333333,-14.416666666666666,400,-14C441.6666666666667,-13.583333333333334,458.3333333333333,58.541666666666664,500,55C541.6666666666666,51.458333333333336,558.3333333333334,-27.25,600,-31C641.6666666666666,-34.75,658.3333333333334,35.958333333333336,700,37C741.6666666666666,38.041666666666664,779.1666666666666,-12.875,800,-26" transform="matrix(1,0,0,1,0,3384)"></path><path d="M10,10C28.75,15.625,60.416666666666664,47.625,100,37C139.58333333333334,26.375,158.33333333333331,-44.333333333333336,200,-41C241.66666666666669,-37.666666666666664,258.3333333333333,47.375,300,53C341.6666666666667,58.625,358.3333333333333,-14.416666666666666,400,-14C441.6666666666667,-13.583333333333334,458.3333333333333,58.541666666666664,500,55C541.6666666666666,51.458333333333336,558.3333333333334,-27.25,600,-31C641.6666666666666,-34.75,658.3333333333334,35.958333333333336,700,37C741.6666666666666,38.041666666666664,779.1666666666666,-12.875,800,-26" transform="matrix(1,0,0,1,0,3312)"></path><path d="M10,10C28.75,15.625,60.416666666666664,47.625,100,37C139.58333333333334,26.375,158.33333333333331,-44.333333333333336,200,-41C241.66666666666669,-37.666666666666664,258.3333333333333,47.375,300,53C341.6666666666667,58.625,358.3333333333333,-14.416666666666666,400,-14C441.6666666666667,-13.583333333333334,458.3333333333333,58.541666666666664,500,55C541.6666666666666,51.458333333333336,558.3333333333334,-27.25,600,-31C641.6666666666666,-34.75,658.3333333333334,35.958333333333336,700,37C741.6666666666666,38.041666666666664,779.1666666666666,-12.875,800,-26" transform="matrix(1,0,0,1,0,3240)"></path><path d="M10,10C28.75,15.625,60.416666666666664,47.625,100,37C139.58333333333334,26.375,158.33333333333331,-44.333333333333336,200,-41C241.66666666666669,-37.666666666666664,258.3333333333333,47.375,300,53C341.6666666666667,58.625,358.3333333333333,-14.416666666666666,400,-14C441.6666666666667,-13.583333333333334,458.3333333333333,58.541666666666664,500,55C541.6666666666666,51.458333333333336,558.3333333333334,-27.25,600,-31C641.6666666666666,-34.75,658.3333333333334,35.958333333333336,700,37C741.6666666666666,38.041666666666664,779.1666666666666,-12.875,800,-26" transform="matrix(1,0,0,1,0,3168)"></path><path d="M10,10C28.75,15.625,60.416666666666664,47.625,100,37C139.58333333333334,26.375,158.33333333333331,-44.333333333333336,200,-41C241.66666666666669,-37.666666666666664,258.3333333333333,47.375,300,53C341.6666666666667,58.625,358.3333333333333,-14.416666666666666,400,-14C441.6666666666667,-13.583333333333334,458.3333333333333,58.541666666666664,500,55C541.6666666666666,51.458333333333336,558.3333333333334,-27.25,600,-31C641.6666666666666,-34.75,658.3333333333334,35.958333333333336,700,37C741.6666666666666,38.041666666666664,779.1666666666666,-12.875,800,-26" transform="matrix(1,0,0,1,0,3096)"></path><path d="M10,10C28.75,15.625,60.416666666666664,47.625,100,37C139.58333333333334,26.375,158.33333333333331,-44.333333333333336,200,-41C241.66666666666669,-37.666666666666664,258.3333333333333,47.375,300,53C341.6666666666667,58.625,358.3333333333333,-14.416666666666666,400,-14C441.6666666666667,-13.583333333333334,458.3333333333333,58.541666666666664,500,55C541.6666666666666,51.458333333333336,558.3333333333334,-27.25,600,-31C641.6666666666666,-34.75,658.3333333333334,35.958333333333336,700,37C741.6666666666666,38.041666666666664,779.1666666666666,-12.875,800,-26" transform="matrix(1,0,0,1,0,3024)"></path><path d="M10,10C28.75,15.625,60.416666666666664,47.625,100,37C139.58333333333334,26.375,158.33333333333331,-44.333333333333336,200,-41C241.66666666666669,-37.666666666666664,258.3333333333333,47.375,300,53C341.6666666666667,58.625,358.3333333333333,-14.416666666666666,400,-14C441.6666666666667,-13.583333333333334,458.3333333333333,58.541666666666664,500,55C541.6666666666666,51.458333333333336,558.3333333333334,-27.25,600,-31C641.6666666666666,-34.75,658.3333333333334,35.958333333333336,700,37C741.6666666666666,38.041666666666664,779.1666666666666,-12.875,800,-26" transform="matrix(1,0,0,1,0,2952)"></path><path d="M10,10C28.75,15.625,60.416666666666664,47.625,100,37C139.58333333333334,26.375,158.33333333333331,-44.333333333333336,200,-41C241.66666666666669,-37.666666666666664,258.3333333333333,47.375,300,53C341.6666666666667,58.625,358.3333333333333,-14.416666666666666,400,-14C441.6666666666667,-13.583333333333334,458.3333333333333,58.541666666666664,500,55C541.6666666666666,51.458333333333336,558.3333333333334,-27.25,600,-31C641.6666666666666,-34.75,658.3333333333334,35.958333333333336,700,37C741.6666666666666,38.041666666666664,779.1666666666666,-12.875,800,-26" transform="matrix(1,0,0,1,0,2880)"></path><path d="M10,10C28.75,15.625,60.416666666666664,47.625,100,37C139.58333333333334,26.375,158.33333333333331,-44.333333333333336,200,-41C241.66666666666669,-37.666666666666664,258.3333333333333,47.375,300,53C341.6666666666667,58.625,358.3333333333333,-14.416666666666666,400,-14C441.6666666666667,-13.583333333333334,458.3333333333333,58.541666666666664,500,55C541.6666666666666,51.458333333333336,558.3333333333334,-27.25,600,-31C641.6666666666666,-34.75,658.3333333333334,35.958333333333336,700,37C741.6666666666666,38.041666666666664,779.1666666666666,-12.875,800,-26" transform="matrix(1,0,0,1,0,2808)"></path><path d="M10,10C28.75,15.625,60.416666666666664,47.625,100,37C139.58333333333334,26.375,158.33333333333331,-44.333333333333336,200,-41C241.66666666666669,-37.666666666666664,258.3333333333333,47.375,300,53C341.6666666666667,58.625,358.3333333333333,-14.416666666666666,400,-14C441.6666666666667,-13.583333333333334,458.3333333333333,58.541666666666664,500,55C541.6666666666666,51.458333333333336,558.3333333333334,-27.25,600,-31C641.6666666666666,-34.75,658.3333333333334,35.958333333333336,700,37C741.6666666666666,38.041666666666664,779.1666666666666,-12.875,800,-26" transform="matrix(1,0,0,1,0,2736)"></path><path d="M10,10C28.75,15.625,60.416666666666664,47.625,100,37C139.58333333333334,26.375,158.33333333333331,-44.333333333333336,200,-41C241.66666666666669,-37.666666666666664,258.3333333333333,47.375,300,53C341.6666666666667,58.625,358.3333333333333,-14.416666666666666,400,-14C441.6666666666667,-13.583333333333334,458.3333333333333,58.541666666666664,500,55C541.6666666666666,51.458333333333336,558.3333333333334,-27.25,600,-31C641.6666666666666,-34.75,658.3333333333334,35.958333333333336,700,37C741.6666666666666,38.041666666666664,779.1666666666666,-12.875,800,-26" transform="matrix(1,0,0,1,0,2664)"></path><path d="M10,10C28.75,15.625,60.416666666666664,47.625,100,37C139.58333333333334,26.375,158.33333333333331,-44.333333333333336,200,-41C241.66666666666669,-37.666666666666664,258.3333333333333,47.375,300,53C341.6666666666667,58.625,358.3333333333333,-14.416666666666666,400,-14C441.6666666666667,-13.583333333333334,458.3333333333333,58.541666666666664,500,55C541.6666666666666,51.458333333333336,558.3333333333334,-27.25,600,-31C641.6666666666666,-34.75,658.3333333333334,35.958333333333336,700,37C741.6666666666666,38.041666666666664,779.1666666666666,-12.875,800,-26" transform="matrix(1,0,0,1,0,2592)"></path><path d="M10,10C28.75,15.625,60.416666666666664,47.625,100,37C139.58333333333334,26.375,158.33333333333331,-44.333333333333336,200,-41C241.66666666666669,-37.666666666666664,258.3333333333333,47.375,300,53C341.6666666666667,58.625,358.3333333333333,-14.416666666666666,400,-14C441.6666666666667,-13.583333333333334,458.3333333333333,58.541666666666664,500,55C541.6666666666666,51.458333333333336,558.3333333333334,-27.25,600,-31C641.6666666666666,-34.75,658.3333333333334,35.958333333333336,700,37C741.6666666666666,38.041666666666664,779.1666666666666,-12.875,800,-26" transform="matrix(1,0,0,1,0,2520)"></path><path d="M10,10C28.75,15.625,60.416666666666664,47.625,100,37C139.58333333333334,26.375,158.33333333333331,-44.333333333333336,200,-41C241.66666666666669,-37.666666666666664,258.3333333333333,47.375,300,53C341.6666666666667,58.625,358.3333333333333,-14.416666666666666,400,-14C441.6666666666667,-13.583333333333334,458.3333333333333,58.541666666666664,500,55C541.6666666666666,51.458333333333336,558.3333333333334,-27.25,600,-31C641.6666666666666,-34.75,658.3333333333334,35.958333333333336,700,37C741.6666666666666,38.041666666666664,779.1666666666666,-12.875,800,-26" transform="matrix(1,0,0,1,0,2448)"></path><path d="M10,10C28.75,15.625,60.416666666666664,47.625,100,37C139.58333333333334,26.375,158.33333333333331,-44.333333333333336,200,-41C241.66666666666669,-37.666666666666664,258.3333333333333,47.375,300,53C341.6666666666667,58.625,358.3333333333333,-14.416666666666666,400,-14C441.6666666666667,-13.583333333333334,458.3333333333333,58.541666666666664,500,55C541.6666666666666,51.458333333333336,558.3333333333334,-27.25,600,-31C641.6666666666666,-34.75,658.3333333333334,35.958333333333336,700,37C741.6666666666666,38.041666666666664,779.1666666666666,-12.875,800,-26" transform="matrix(1,0,0,1,0,2376)"></path><path d="M10,10C28.75,15.625,60.416666666666664,47.625,100,37C139.58333333333334,26.375,158.33333333333331,-44.333333333333336,200,-41C241.66666666666669,-37.666666666666664,258.3333333333333,47.375,300,53C341.6666666666667,58.625,358.3333333333333,-14.416666666666666,400,-14C441.6666666666667,-13.583333333333334,458.3333333333333,58.541666666666664,500,55C541.6666666666666,51.458333333333336,558.3333333333334,-27.25,600,-31C641.6666666666666,-34.75,658.3333333333334,35.958333333333336,700,37C741.6666666666666,38.041666666666664,779.1666666666666,-12.875,800,-26" transform="matrix(1,0,0,1,0,2304)"></path><path d="M10,10C28.75,15.625,60.416666666666664,47.625,100,37C139.58333333333334,26.375,158.33333333333331,-44.333333333333336,200,-41C241.66666666666669,-37.666666666666664,258.3333333333333,47.375,300,53C341.6666666666667,58.625,358.3333333333333,-14.416666666666666,400,-14C441.6666666666667,-13.583333333333334,458.3333333333333,58.541666666666664,500,55C541.6666666666666,51.458333333333336,558.3333333333334,-27.25,600,-31C641.6666666666666,-34.75,658.3333333333334,35.958333333333336,700,37C741.6666666666666,38.041666666666664,779.1666666666666,-12.875,800,-26" transform="matrix(1,0,0,1,0,2232)"></path><path d="M10,10C28.75,15.625,60.416666666666664,47.625,100,37C139.58333333333334,26.375,158.33333333333331,-44.333333333333336,200,-41C241.66666666666669,-37.666666666666664,258.3333333333333,47.375,300,53C341.6666666666667,58.625,358.3333333333333,-14.416666666666666,400,-14C441.6666666666667,-13.583333333333334,458.3333333333333,58.541666666666664,500,55C541.6666666666666,51.458333333333336,558.3333333333334,-27.25,600,-31C641.6666666666666,-34.75,658.3333333333334,35.958333333333336,700,37C741.6666666666666,38.041666666666664,779.1666666666666,-12.875,800,-26" transform="matrix(1,0,0,1,0,2160)"></path><path d="M10,10C28.75,15.625,60.416666666666664,47.625,100,37C139.58333333333334,26.375,158.33333333333331,-44.333333333333336,200,-41C241.66666666666669,-37.666666666666664,258.3333333333333,47.375,300,53C341.6666666666667,58.625,358.3333333333333,-14.416666666666666,400,-14C441.6666666666667,-13.583333333333334,458.3333333333333,58.541666666666664,500,55C541.6666666666666,51.458333333333336,558.3333333333334,-27.25,600,-31C641.6666666666666,-34.75,658.3333333333334,35.958333333333336,700,37C741.6666666666666,38.041666666666664,779.1666666666666,-12.875,800,-26" transform="matrix(1,0,0,1,0,2088)"></path><path d="M10,10C28.75,15.625,60.416666666666664,47.625,100,37C139.58333333333334,26.375,158.33333333333331,-44.333333333333336,200,-41C241.66666666666669,-37.666666666666664,258.3333333333333,47.375,300,53C341.6666666666667,58.625,358.3333333333333,-14.416666666666666,400,-14C441.6666666666667,-13.583333333333334,458.3333333333333,58.541666666666664,500,55C541.6666666666666,51.458333333333336,558.3333333333334,-27.25,600,-31C641.6666666666666,-34.75,658.3333333333334,35.958333333333336,700,37C741.6666666666666,38.041666666666664,779.1666666666666,-12.875,800,-26" transform="matrix(1,0,0,1,0,2016)"></path><path d="M10,10C28.75,15.625,60.416666666666664,47.625,100,37C139.58333333333334,26.375,158.33333333333331,-44.333333333333336,200,-41C241.66666666666669,-37.666666666666664,258.3333333333333,47.375,300,53C341.6666666666667,58.625,358.3333333333333,-14.416666666666666,400,-14C441.6666666666667,-13.583333333333334,458.3333333333333,58.541666666666664,500,55C541.6666666666666,51.458333333333336,558.3333333333334,-27.25,600,-31C641.6666666666666,-34.75,658.3333333333334,35.958333333333336,700,37C741.6666666666666,38.041666666666664,779.1666666666666,-12.875,800,-26" transform="matrix(1,0,0,1,0,1944)"></path><path d="M10,10C28.75,15.625,60.416666666666664,47.625,100,37C139.58333333333334,26.375,158.33333333333331,-44.333333333333336,200,-41C241.66666666666669,-37.666666666666664,258.3333333333333,47.375,300,53C341.6666666666667,58.625,358.3333333333333,-14.416666666666666,400,-14C441.6666666666667,-13.583333333333334,458.3333333333333,58.541666666666664,500,55C541.6666666666666,51.458333333333336,558.3333333333334,-27.25,600,-31C641.6666666666666,-34.75,658.3333333333334,35.958333333333336,700,37C741.6666666666666,38.041666666666664,779.1666666666666,-12.875,800,-26" transform="matrix(1,0,0,1,0,1872)"></path><path d="M10,10C28.75,15.625,60.416666666666664,47.625,100,37C139.58333333333334,26.375,158.33333333333331,-44.333333333333336,200,-41C241.66666666666669,-37.666666666666664,258.3333333333333,47.375,300,53C341.6666666666667,58.625,358.3333333333333,-14.416666666666666,400,-14C441.6666666666667,-13.583333333333334,458.3333333333333,58.541666666666664,500,55C541.6666666666666,51.458333333333336,558.3333333333334,-27.25,600,-31C641.6666666666666,-34.75,658.3333333333334,35.958333333333336,700,37C741.6666666666666,38.041666666666664,779.1666666666666,-12.875,800,-26" transform="matrix(1,0,0,1,0,1800)"></path><path d="M10,10C28.75,15.625,60.416666666666664,47.625,100,37C139.58333333333334,26.375,158.33333333333331,-44.333333333333336,200,-41C241.66666666666669,-37.666666666666664,258.3333333333333,47.375,300,53C341.6666666666667,58.625,358.3333333333333,-14.416666666666666,400,-14C441.6666666666667,-13.583333333333334,458.3333333333333,58.541666666666664,500,55C541.6666666666666,51.458333333333336,558.3333333333334,-27.25,600,-31C641.6666666666666,-34.75,658.3333333333334,35.958333333333336,700,37C741.6666666666666,38.041666666666664,779.1666666666666,-12.875,800,-26" transform="matrix(1,0,0,1,0,1728)"></path><path d="M10,10C28.75,15.625,60.416666666666664,47.625,100,37C139.58333333333334,26.375,158.33333333333331,-44.333333333333336,200,-41C241.66666666666669,-37.666666666666664,258.3333333333333,47.375,300,53C341.6666666666667,58.625,358.3333333333333,-14.416666666666666,400,-14C441.6666666666667,-13.583333333333334,458.3333333333333,58.541666666666664,500,55C541.6666666666666,51.458333333333336,558.3333333333334,-27.25,600,-31C641.6666666666666,-34.75,658.3333333333334,35.958333333333336,700,37C741.6666666666666,38.041666666666664,779.1666666666666,-12.875,800,-26" transform="matrix(1,0,0,1,0,1656)"></path><path d="M10,10C28.75,15.625,60.416666666666664,47.625,100,37C139.58333333333334,26.375,158.33333333333331,-44.333333333333336,200,-41C241.66666666666669,-37.666666666666664,258.3333333333333,47.375,300,53C341.6666666666667,58.625,358.3333333333333,-14.416666666666666,400,-14C441.6666666666667,-13.583333333333334,458.3333333333333,58.541666666666664,500,55C541.6666666666666,51.458333333333336,558.3333333333334,-27.25,600,-31C641.6666666666666,-34.75,658.3333333333334,35.958333333333336,700,37C741.6666666666666,38.041666666666664,779.1666666666666,-12.875,800,-26" transform="matrix(1,0,0,1,0,1584)"></path><path d="M10,10C28.75,15.625,60.416666666666664,47.625,100,37C139.58333333333334,26.375,158.33333333333331,-44.333333333333336,200,-41C241.66666666666669,-37.666666666666664,258.3333333333333,47.375,300,53C341.6666666666667,58.625,358.3333333333333,-14.416666666666666,400,-14C441.6666666666667,-13.583333333333334,458.3333333333333,58.541666666666664,500,55C541.6666666666666,51.458333333333336,558.3333333333334,-27.25,600,-31C641.6666666666666,-34.75,658.3333333333334,35.958333333333336,700,37C741.6666666666666,38.041666666666664,779.1666666666666,-12.875,800,-26" transform="matrix(1,0,0,1,0,1512)"></path><path d="M10,10C28.75,15.625,60.416666666666664,47.625,100,37C139.58333333333334,26.375,158.33333333333331,-44.333333333333336,200,-41C241.66666666666669,-37.666666666666664,258.3333333333333,47.375,300,53C341.6666666666667,58.625,358.3333333333333,-14.416666666666666,400,-14C441.6666666666667,-13.583333333333334,458.3333333333333,58.541666666666664,500,55C541.6666666666666,51.458333333333336,558.3333333333334,-27.25,600,-31C641.6666666666666,-34.75,658.3333333333334,35.958333333333336,700,37C741.6666666666666,38.041666666666664,779.1666666666666,-12.875,800,-26" transform="matrix(1,0,0,1,0,1440)"></path><path d="M10,10C28.75,15.625,60.416666666666664,47.625,100,37C139.58333333333334,26.375,158.33333333333331,-44.333333333333336,200,-41C241.66666666666669,-37.666666666666664,258.3333333333333,47.375,300,53C341.6666666666667,58.625,358.3333333333333,-14.416666666666666,400,-14C441.6666666666667,-13.583333333333334,458.3333333333333,58.541666666666664,500,55C541.6666666666666,51.458333333333336,558.3333333333334,-27.25,600,-31C641.6666666666666,-34.75,658.3333333333334,35.958333333333336,700,37C741.6666666666666,38.041666666666664,779.1666666666666,-12.875,800,-26" transform="matrix(1,0,0,1,0,1368)"></path><path d="M10,10C28.75,15.625,60.416666666666664,47.625,100,37C139.58333333333334,26.375,158.33333333333331,-44.333333333333336,200,-41C241.66666666666669,-37.666666666666664,258.3333333333333,47.375,300,53C341.6666666666667,58.625,358.3333333333333,-14.416666666666666,400,-14C441.6666666666667,-13.583333333333334,458.3333333333333,58.541666666666664,500,55C541.6666666666666,51.458333333333336,558.3333333333334,-27.25,600,-31C641.6666666666666,-34.75,658.3333333333334,35.958333333333336,700,37C741.6666666666666,38.041666666666664,779.1666666666666,-12.875,800,-26" transform="matrix(1,0,0,1,0,1296)"></path><path d="M10,10C28.75,15.625,60.416666666666664,47.625,100,37C139.58333333333334,26.375,158.33333333333331,-44.333333333333336,200,-41C241.66666666666669,-37.666666666666664,258.3333333333333,47.375,300,53C341.6666666666667,58.625,358.3333333333333,-14.416666666666666,400,-14C441.6666666666667,-13.583333333333334,458.3333333333333,58.541666666666664,500,55C541.6666666666666,51.458333333333336,558.3333333333334,-27.25,600,-31C641.6666666666666,-34.75,658.3333333333334,35.958333333333336,700,37C741.6666666666666,38.041666666666664,779.1666666666666,-12.875,800,-26" transform="matrix(1,0,0,1,0,1224)"></path><path d="M10,10C28.75,15.625,60.416666666666664,47.625,100,37C139.58333333333334,26.375,158.33333333333331,-44.333333333333336,200,-41C241.66666666666669,-37.666666666666664,258.3333333333333,47.375,300,53C341.6666666666667,58.625,358.3333333333333,-14.416666666666666,400,-14C441.6666666666667,-13.583333333333334,458.3333333333333,58.541666666666664,500,55C541.6666666666666,51.458333333333336,558.3333333333334,-27.25,600,-31C641.6666666666666,-34.75,658.3333333333334,35.958333333333336,700,37C741.6666666666666,38.041666666666664,779.1666666666666,-12.875,800,-26" transform="matrix(1,0,0,1,0,1152)"></path><path d="M10,10C28.75,15.625,60.416666666666664,47.625,100,37C139.58333333333334,26.375,158.33333333333331,-44.333333333333336,200,-41C241.66666666666669,-37.666666666666664,258.3333333333333,47.375,300,53C341.6666666666667,58.625,358.3333333333333,-14.416666666666666,400,-14C441.6666666666667,-13.583333333333334,458.3333333333333,58.541666666666664,500,55C541.6666666666666,51.458333333333336,558.3333333333334,-27.25,600,-31C641.6666666666666,-34.75,658.3333333333334,35.958333333333336,700,37C741.6666666666666,38.041666666666664,779.1666666666666,-12.875,800,-26" transform="matrix(1,0,0,1,0,1080)"></path><path d="M10,10C28.75,15.625,60.416666666666664,47.625,100,37C139.58333333333334,26.375,158.33333333333331,-44.333333333333336,200,-41C241.66666666666669,-37.666666666666664,258.3333333333333,47.375,300,53C341.6666666666667,58.625,358.3333333333333,-14.416666666666666,400,-14C441.6666666666667,-13.583333333333334,458.3333333333333,58.541666666666664,500,55C541.6666666666666,51.458333333333336,558.3333333333334,-27.25,600,-31C641.6666666666666,-34.75,658.3333333333334,35.958333333333336,700,37C741.6666666666666,38.041666666666664,779.1666666666666,-12.875,800,-26" transform="matrix(1,0,0,1,0,1008)"></path><path d="M10,10C28.75,15.625,60.416666666666664,47.625,100,37C139.58333333333334,26.375,158.33333333333331,-44.333333333333336,200,-41C241.66666666666669,-37.666666666666664,258.3333333333333,47.375,300,53C341.6666666666667,58.625,358.3333333333333,-14.416666666666666,400,-14C441.6666666666667,-13.583333333333334,458.3333333333333,58.541666666666664,500,55C541.6666666666666,51.458333333333336,558.3333333333334,-27.25,600,-31C641.6666666666666,-34.75,658.3333333333334,35.958333333333336,700,37C741.6666666666666,38.041666666666664,779.1666666666666,-12.875,800,-26" transform="matrix(1,0,0,1,0,936)"></path><path d="M10,10C28.75,15.625,60.416666666666664,47.625,100,37C139.58333333333334,26.375,158.33333333333331,-44.333333333333336,200,-41C241.66666666666669,-37.666666666666664,258.3333333333333,47.375,300,53C341.6666666666667,58.625,358.3333333333333,-14.416666666666666,400,-14C441.6666666666667,-13.583333333333334,458.3333333333333,58.541666666666664,500,55C541.6666666666666,51.458333333333336,558.3333333333334,-27.25,600,-31C641.6666666666666,-34.75,658.3333333333334,35.958333333333336,700,37C741.6666666666666,38.041666666666664,779.1666666666666,-12.875,800,-26" transform="matrix(1,0,0,1,0,864)"></path><path d="M10,10C28.75,15.625,60.416666666666664,47.625,100,37C139.58333333333334,26.375,158.33333333333331,-44.333333333333336,200,-41C241.66666666666669,-37.666666666666664,258.3333333333333,47.375,300,53C341.6666666666667,58.625,358.3333333333333,-14.416666666666666,400,-14C441.6666666666667,-13.583333333333334,458.3333333333333,58.541666666666664,500,55C541.6666666666666,51.458333333333336,558.3333333333334,-27.25,600,-31C641.6666666666666,-34.75,658.3333333333334,35.958333333333336,700,37C741.6666666666666,38.041666666666664,779.1666666666666,-12.875,800,-26" transform="matrix(1,0,0,1,0,792)"></path><path d="M10,10C28.75,15.625,60.416666666666664,47.625,100,37C139.58333333333334,26.375,158.33333333333331,-44.333333333333336,200,-41C241.66666666666669,-37.666666666666664,258.3333333333333,47.375,300,53C341.6666666666667,58.625,358.3333333333333,-14.416666666666666,400,-14C441.6666666666667,-13.583333333333334,458.3333333333333,58.541666666666664,500,55C541.6666666666666,51.458333333333336,558.3333333333334,-27.25,600,-31C641.6666666666666,-34.75,658.3333333333334,35.958333333333336,700,37C741.6666666666666,38.041666666666664,779.1666666666666,-12.875,800,-26" transform="matrix(1,0,0,1,0,720)"></path><path d="M10,10C28.75,15.625,60.416666666666664,47.625,100,37C139.58333333333334,26.375,158.33333333333331,-44.333333333333336,200,-41C241.66666666666669,-37.666666666666664,258.3333333333333,47.375,300,53C341.6666666666667,58.625,358.3333333333333,-14.416666666666666,400,-14C441.6666666666667,-13.583333333333334,458.3333333333333,58.541666666666664,500,55C541.6666666666666,51.458333333333336,558.3333333333334,-27.25,600,-31C641.6666666666666,-34.75,658.3333333333334,35.958333333333336,700,37C741.6666666666666,38.041666666666664,779.1666666666666,-12.875,800,-26" transform="matrix(1,0,0,1,0,648)"></path><path d="M10,10C28.75,15.625,60.416666666666664,47.625,100,37C139.58333333333334,26.375,158.33333333333331,-44.333333333333336,200,-41C241.66666666666669,-37.666666666666664,258.3333333333333,47.375,300,53C341.6666666666667,58.625,358.3333333333333,-14.416666666666666,400,-14C441.6666666666667,-13.583333333333334,458.3333333333333,58.541666666666664,500,55C541.6666666666666,51.458333333333336,558.3333333333334,-27.25,600,-31C641.6666666666666,-34.75,658.3333333333334,35.958333333333336,700,37C741.6666666666666,38.041666666666664,779.1666666666666,-12.875,800,-26" transform="matrix(1,0,0,1,0,576)"></path><path d="M10,10C28.75,15.625,60.416666666666664,47.625,100,37C139.58333333333334,26.375,158.33333333333331,-44.333333333333336,200,-41C241.66666666666669,-37.666666666666664,258.3333333333333,47.375,300,53C341.6666666666667,58.625,358.3333333333333,-14.416666666666666,400,-14C441.6666666666667,-13.583333333333334,458.3333333333333,58.541666666666664,500,55C541.6666666666666,51.458333333333336,558.3333333333334,-27.25,600,-31C641.6666666666666,-34.75,658.3333333333334,35.958333333333336,700,37C741.6666666666666,38.041666666666664,779.1666666666666,-12.875,800,-26" transform="matrix(1,0,0,1,0,504)"></path><path d="M10,10C28.75,15.625,60.416666666666664,47.625,100,37C139.58333333333334,26.375,158.33333333333331,-44.333333333333336,200,-41C241.66666666666669,-37.666666666666664,258.3333333333333,47.375,300,53C341.6666666666667,58.625,358.3333333333333,-14.416666666666666,400,-14C441.6666666666667,-13.583333333333334,458.3333333333333,58.541666666666664,500,55C541.6666666666666,51.458333333333336,558.3333333333334,-27.25,600,-31C641.6666666666666,-34.75,658.3333333333334,35.958333333333336,700,37C741.6666666666666,38.041666666666664,779.1666666666666,-12.875,800,-26" transform="matrix(1,0,0,1,0,432)"></path><path d="M10,10C28.75,15.625,60.416666666666664,47.625,100,37C139.58333333333334,26.375,158.33333333333331,-44.333333333333336,200,-41C241.66666666666669,-37.666666666666664,258.3333333333333,47.375,300,53C341.6666666666667,58.625,358.3333333333333,-14.416666666666666,400,-14C441.6666666666667,-13.583333333333334,458.3333333333333,58.541666666666664,500,55C541.6666666666666,51.458333333333336,558.3333333333334,-27.25,600,-31C641.6666666666666,-34.75,658.3333333333334,35.958333333333336,700,37C741.6666666666666,38.041666666666664,779.1666666666666,-12.875,800,-26" transform="matrix(1,0,0,1,0,360)"></path><path d="M10,10C28.75,15.625,60.416666666666664,47.625,100,37C139.58333333333334,26.375,158.33333333333331,-44.333333333333336,200,-41C241.66666666666669,-37.666666666666664,258.3333333333333,47.375,300,53C341.6666666666667,58.625,358.3333333333333,-14.416666666666666,400,-14C441.6666666666667,-13.583333333333334,458.3333333333333,58.541666666666664,500,55C541.6666666666666,51.458333333333336,558.3333333333334,-27.25,600,-31C641.6666666666666,-34.75,658.3333333333334,35.958333333333336,700,37C741.6666666666666,38.041666666666664,779.1666666666666,-12.875,800,-26" transform="matrix(1,0,0,1,0,288)"></path><path d="M10,10C28.75,15.625,60.416666666666664,47.625,100,37C139.58333333333334,26.375,158.33333333333331,-44.333333333333336,200,-41C241.66666666666669,-37.666666666666664,258.3333333333333,47.375,300,53C341.6666666666667,58.625,358.3333333333333,-14.416666666666666,400,-14C441.6666666666667,-13.583333333333334,458.3333333333333,58.541666666666664,500,55C541.6666666666666,51.458333333333336,558.3333333333334,-27.25,600,-31C641.6666666666666,-34.75,658.3333333333334,35.958333333333336,700,37C741.6666666666666,38.041666666666664,779.1666666666666,-12.875,800,-26" transform="matrix(1,0,0,1,0,216)"></path><path d="M10,10C28.75,15.625,60.416666666666664,47.625,100,37C139.58333333333334,26.375,158.33333333333331,-44.333333333333336,200,-41C241.66666666666669,-37.666666666666664,258.3333333333333,47.375,300,53C341.6666666666667,58.625,358.3333333333333,-14.416666666666666,400,-14C441.6666666666667,-13.583333333333334,458.3333333333333,58.541666666666664,500,55C541.6666666666666,51.458333333333336,558.3333333333334,-27.25,600,-31C641.6666666666666,-34.75,658.3333333333334,35.958333333333336,700,37C741.6666666666666,38.041666666666664,779.1666666666666,-12.875,800,-26" transform="matrix(1,0,0,1,0,144)"></path><path d="M10,10C28.75,15.625,60.416666666666664,47.625,100,37C139.58333333333334,26.375,158.33333333333331,-44.333333333333336,200,-41C241.66666666666669,-37.666666666666664,258.3333333333333,47.375,300,53C341.6666666666667,58.625,358.3333333333333,-14.416666666666666,400,-14C441.6666666666667,-13.583333333333334,458.3333333333333,58.541666666666664,500,55C541.6666666666666,51.458333333333336,558.3333333333334,-27.25,600,-31C641.6666666666666,-34.75,658.3333333333334,35.958333333333336,700,37C741.6666666666666,38.041666666666664,779.1666666666666,-12.875,800,-26" transform="matrix(1,0,0,1,0,72)"></path></g></svg>