<svg xmlns="http://www.w3.org/2000/svg" version="1.1" xmlns:xlink="http://www.w3.org/1999/xlink" xmlns:svgjs="http://svgjs.dev/svgjs" viewBox="0 0 800 800"><defs><filter id="llleaves-blur-2" x="-100%" y="-100%" width="400%" height="400%"><feGaussianBlur in="SourceGraphic" stdDeviation="2"></feGaussianBlur></filter><filter id="llleaves-blur-3" x="-100%" y="-100%" width="400%" height="400%"><feGaussianBlur in="SourceGraphic" stdDeviation="4"></feGaussianBlur></filter><filter id="llleaves-blur-4" x="-100%" y="-100%" width="400%" height="400%"><feGaussianBlur in="SourceGraphic" stdDeviation="12"></feGaussianBlur></filter></defs><g fill="hsl(0, 0%, 100%)"><path d="M708 352H758C786 352 808 374 808 402H758C730 402 708 380 708 352Z " transform="matrix(-0.06756721265558294,0.2521642705564463,-0.2521642705564463,-0.06756721265558294,904.2818771927122,211.3323220893685)" filter="url(#llleaves-blur-3)" opacity="0.40"></path><path d="M301 199H351C379 199 401 221 401 249H351C323 249 301 227 301 199Z " transform="matrix(0.017984944442206642,-0.5150214243261901,0.5150214243261901,0.017984944442206642,229.32248545171888,400.74389238343844)" opacity="0.79"></path><path d="M68 506H118C146 506 168 528 168 556H118C90 556 68 534 68 506Z " transform="matrix(-0.2636398801835357,-0.3765167693818461,0.3765167693818461,-0.2636398801835357,-50.820898680103085,715.4217551645153)" opacity="0.71"></path><path d="M162 184H212C240 184 262 206 262 234H212C184 234 162 212 162 184Z " transform="matrix(-0.052541871282707216,-0.49990251249052853,0.49990251249052853,-0.052541871282707216,118.65925160141347,325.9605837460779)" opacity="0.77"></path><path d="M224 441H274C302 441 324 463 324 491H274C246 491 224 469 224 441Z " transform="matrix(0.045308525683974345,-0.5178788183288342,0.5178788183288342,0.045308525683974345,20.25393462135432,586.7850232533684)" opacity="0.80"></path><path d="M402 162H452C480 162 502 184 502 212H452C424 212 402 190 402 162Z " transform="matrix(-0.2207452637628468,-0.4151614596586427,0.4151614596586427,-0.2207452637628468,474.1416662646406,415.93234408935893)" opacity="0.72"></path><path d="M89 130H139C167 130 189 152 189 180H139C111 180 89 158 89 130Z " transform="matrix(-0.2007209111963755,-0.4304473831516112,0.4304473831516112,-0.2007209111963755,100.18086226779647,245.94392749351215)" opacity="0.73"></path><path d="M483 111H533C561 111 583 133 583 161H533C505 161 483 139 483 111Z " transform="matrix(-0.34849068173295533,-0.2531933008925729,0.2531933008925729,-0.34849068173295533,684.3112444422752,318.34676209142333)" opacity="0.66"></path><path d="M331 15H381C409 15 431 37 431 65H381C353 65 331 43 331 15Z " transform="matrix(0.13838760235883651,-0.5164695631408157,0.5164695631408157,0.13838760235883651,307.6155409756507,231.23939946229729)" opacity="0.82"></path><path d="M392 275H442C470 275 492 297 492 325H442C414 325 392 303 392 275Z " transform="matrix(-0.17217208260742942,-0.4485236096461716,0.4485236096461716,-0.17217208260742942,383.54297761863234,549.8990602458366)" opacity="0.74"></path><path d="M444 470H494C522 470 544 492 544 520H494C466 520 444 498 444 470Z " transform="matrix(-0.30495960576080516,-0.32702913903935005,0.32702913903935005,-0.30495960576080516,482.77062142135946,807.5073995370375)" opacity="0.69"></path><path d="M523 22H573C601 22 623 44 623 72H573C545 72 523 50 523 22Z " transform="matrix(-0.382755104668808,-0.05379272189675552,0.05379272189675552,-0.382755104668808,789.7904170460794,95.8127195662749)" filter="url(#llleaves-blur-2)" opacity="0.59"></path><path d="M11 22H61C89 22 111 44 111 72H61C33 72 11 50 11 22Z " transform="matrix(-0.36680543722958775,-0.2033235739784509,0.2033235739784509,-0.36680543722958775,73.81892369401766,76.64259356247612)" opacity="0.64"></path><path d="M-5 710H45C73 710 95 732 95 760H45C17 760 -5 738 -5 710Z " transform="matrix(-0.38314104852500314,-0.11713797386033471,0.11713797386033471,-0.38314104852500314,-23.85506360372088,1021.8798794895923)" opacity="0.61"></path><path d="M218 628H268C296 628 318 650 318 678H268C240 678 218 656 218 628Z " transform="matrix(0.045308525683974345,-0.5178788183288342,0.5178788183288342,0.045308525683974345,-82.31755325203386,762.2050560404923)" opacity="0.80"></path><path d="M421 578H471C499 578 521 600 521 628H471C443 628 421 606 421 578Z " transform="matrix(-0.26331190840818164,-0.37604837714460654,0.37604837714460654,-0.26331190840818164,368.2627374420558,938.8958664052432)" opacity="0.70"></path><path d="M604 101H654C682 101 704 123 704 151H654C626 151 604 129 604 101Z " transform="matrix(-0.26749371874823846,0.18042679149753957,-0.18042679149753957,-0.26749371874823846,851.6746677900379,41.70508692288716)" filter="url(#llleaves-blur-2)" opacity="0.49"></path><path d="M196 347H246C274 347 296 369 296 397H246C218 397 196 375 196 347Z " transform="matrix(0.00896007046678421,-0.5133220932509793,0.5133220932509793,0.00896007046678421,52.84000397580678,494.94408872609716)" opacity="0.79"></path><path d="M-6 447H44C72 447 94 469 94 497H44C16 497 -6 475 -6 447Z " transform="matrix(-0.38314104852500314,-0.11713797386033471,0.11713797386033471,-0.38314104852500314,5.569082473022156,657.9966457536561)" opacity="0.61"></path><path d="M471 236H521C549 236 571 258 571 286H521C493 286 471 264 471 236Z " transform="matrix(-0.3650006865865596,-0.21073324465514848,0.21073324465514848,-0.3650006865865596,656.1639808566038,466.0571996644244)" opacity="0.65"></path><path d="M506 349H556C584 349 606 371 606 399H556C528 399 506 377 506 349Z " transform="matrix(-0.38410642445473586,-0.08867795541357261,0.08867795541357261,-0.38410642445473586,736.3976166721569,566.9607459560176)" filter="url(#llleaves-blur-2)" opacity="0.60"></path><path d="M698 733H748C776 733 798 755 798 783H748C720 783 698 761 698 733Z " transform="matrix(-0.09143855823696512,0.25122537402354816,-0.25122537402354816,-0.09143855823696512,1006.8248750710994,639.3938473740055)" filter="url(#llleaves-blur-3)" opacity="0.41"></path><path d="M410 375H460C488 375 510 397 510 425H460C432 425 410 403 410 375Z " transform="matrix(-0.2207452637628468,-0.4151614596586427,0.4151614596586427,-0.2207452637628468,395.47823746745246,679.2723769481144)" opacity="0.72"></path><path d="M288 724H338C366 724 388 746 388 774H338C310 774 288 752 288 724Z " transform="matrix(0.03618316643946617,-0.517443387361866,0.517443387361866,0.03618316643946617,-61.795007390577155,896.7946732651505)" opacity="0.80"></path><path d="M632 201H682C710 201 732 223 732 251H682C654 251 632 229 632 201Z " transform="matrix(-0.20694223366899006,0.22191837616924137,-0.22191837616924137,-0.20694223366899006,873.2881563764997,121.42061226176915)" filter="url(#llleaves-blur-2)" opacity="0.46"></path><path d="M85 721H135C163 721 185 743 185 771H135C107 771 85 749 85 721Z " transform="matrix(-0.2205760254472769,-0.4148431686795997,0.4148431686795997,-0.2205760254472769,-144.69524039959896,966.5535427554144)" opacity="0.72"></path><path d="M544 174H594C622 174 644 196 644 224H594C566 224 544 202 544 174Z " transform="matrix(-0.3645527027932838,0.038316033041123625,-0.038316033041123625,-0.3645527027932838,818.1691960343942,248.78626422943603)" filter="url(#llleaves-blur-2)" opacity="0.56"></path><path d="M595 722H645C673 722 695 744 695 772H645C617 772 595 750 595 722Z " transform="matrix(-0.280258320777637,0.16839618811007565,-0.16839618811007565,-0.280258320777637,951.5585694198023,847.7374242898959)" filter="url(#llleaves-blur-2)" opacity="0.50"></path><path d="M706 29H756C784 29 806 51 806 79H756C728 79 706 57 706 29Z " transform="matrix(-0.09686601218440609,0.25234458908209284,-0.25234458908209284,-0.09686601218440609,842.857313021844,-131.54174468810427)" filter="url(#llleaves-blur-3)" opacity="0.41"></path><path d="M220 113H270C298 113 320 135 320 163H270C242 163 220 141 220 113Z " transform="matrix(0.11972182983551008,-0.518572217557665,0.518572217557665,0.11972182983551008,166.1121399214545,261.4928862232692)" opacity="0.82"></path><path d="M710 244H760C788 244 810 266 810 294H760C732 294 710 272 710 244Z " transform="matrix(-0.06756721265558294,0.2521642705564463,-0.2521642705564463,-0.06756721265558294,879.1832703979272,95.5307345814526)" filter="url(#llleaves-blur-3)" opacity="0.40"></path></g><g fill="none" stroke-width="3" stroke="hsl(0, 0%, 100%)"><path d="M107 616H157C185 616 207 638 207 666H157C129 666 107 644 107 616Z " transform="matrix(-0.1795525096796432,-0.4444080562059868,0.4444080562059868,-0.1795525096796432,-99.67582000833352,825.8652235289912)" opacity="0.74"></path><path d="M534 447H584C612 447 634 469 634 497H584C556 497 534 475 534 447Z " transform="matrix(-0.3645527027932838,0.038316033041123625,-0.038316033041123625,-0.3645527027932838,814.983946026688,621.6923124224137)" filter="url(#llleaves-blur-2)" opacity="0.56"></path><path d="M394 718H444C472 718 494 740 494 768H444C416 768 394 746 394 718Z " transform="matrix(-0.17217208260742942,-0.4485236096461716,0.4485236096461716,-0.17217208260742942,187.19136271059313,1070.0683400602204)" opacity="0.74"></path><path d="M182 724H232C260 724 282 746 282 774H232C204 774 182 752 182 724Z " transform="matrix(-0.026615151885145415,-0.5078473510851023,0.5078473510851023,-0.026615151885145415,-142.20295072538784,886.7553342137176)" opacity="0.78"></path><path d="M3 332H53C81 332 103 354 103 382H53C25 382 3 360 3 332Z " transform="matrix(-0.3745051566132584,-0.17463462254729942,0.17463462254729942,-0.3745051566132584,10.5042130511168,499.9539759059401)" opacity="0.63"></path><path d="M265 541H315C343 541 365 563 365 591H315C287 591 265 569 265 541Z " transform="matrix(0.05453392968650166,-0.5188556821583277,0.5188556821583277,0.05453392968650166,4.149496047138541,698.5733356773133)" opacity="0.80"></path><path d="M491 647H541C569 647 591 669 591 697H541C513 697 491 675 491 647Z " transform="matrix(-0.37825592437197125,-0.15282531352379605,0.15282531352379605,-0.37825592437197125,642.9378443972455,1008.8664757943384)" opacity="0.63"></path><path d="M522 549H572C600 549 622 571 622 599H572C544 599 522 577 522 549Z " transform="matrix(-0.3794327478757306,-0.026532522405915436,0.026532522405915436,-0.3794327478757306,773.8058639239225,806.9710000968531)" filter="url(#llleaves-blur-2)" opacity="0.58"></path><path d="M218 253H268C296 253 318 275 318 303H268C240 303 218 281 218 253Z " transform="matrix(0.045308525683974345,-0.5178788183288342,0.5178788183288342,0.045308525683974345,111.88700362127898,404.19575317198274)" opacity="0.80"></path><path d="M316 405H366C394 405 416 427 416 455H366C338 455 316 433 316 405Z " transform="matrix(0.017984944442206642,-0.5150214243261901,0.5150214243261901,0.017984944442206642,137.95829787389061,610.7643151932367)" opacity="0.79"></path><path d="M302 310H352C380 310 402 332 402 360H352C324 360 302 338 302 310Z " transform="matrix(0.017984944442206642,-0.5150214243261901,0.5150214243261901,0.017984944442206642,173.13712240706957,510.2625849746797)" opacity="0.79"></path><path d="M495 734H545C573 734 595 756 595 784H545C517 784 495 762 495 734Z " transform="matrix(-0.37825592437197125,-0.15282531352379605,0.15282531352379605,-0.37825592437197125,635.1550658181632,1129.386042468795)" opacity="0.63"></path><path d="M349 499H399C427 499 449 521 449 549H399C371 549 349 527 349 499Z " transform="matrix(-0.04400307873405635,-0.502957491412789,0.502957491412789,-0.04400307873405635,153.00750291458704,747.7376523303484)" opacity="0.78"></path><path d="M162 515H212C240 515 262 537 262 565H212C184 565 162 543 162 515Z " transform="matrix(-0.052541871282707216,-0.49990251249052853,0.49990251249052853,-0.052541871282707216,-46.80848003295148,674.3519431406539)" opacity="0.77"></path><path d="M-2 586H48C76 586 98 608 98 636H48C20 636 -2 614 -2 586Z " transform="matrix(-0.38314104852500314,-0.11713797386033471,0.11713797386033471,-0.38314104852500314,-5.18053169946436,850.7218033940729)" opacity="0.61"></path><path d="M231 20H281C309 20 331 42 331 70H281C253 70 231 48 231 20Z " transform="matrix(0.20430770255088856,-0.5056793086353915,0.5056793086353915,0.20430770255088856,200.83396669460768,177.90203911175502)" opacity="0.84"></path><path d="M335 625H385C413 625 435 647 435 675H385C357 675 335 653 335 625Z " transform="matrix(-0.04400307873405635,-0.502957491412789,0.502957491412789,-0.04400307873405635,75.01881589429883,872.2406353710605)" opacity="0.78"></path><path d="M618 16H668C696 16 718 38 718 66H668C640 66 618 44 618 16Z " transform="matrix(-0.21664859426010655,0.21664859426010658,-0.21664859426010658,-0.21664859426010655,821.6038533304156,-94.83866860108682)" filter="url(#llleaves-blur-2)" opacity="0.47"></path><path d="M103 396H153C181 396 203 418 203 446H153C125 446 103 424 103 396Z " transform="matrix(-0.1795525096796432,-0.4444080562059868,0.4444080562059868,-0.1795525096796432,-6.624257681735031,564.5860391746457)" opacity="0.74"></path><path d="M616 511H666C694 511 716 533 716 561H666C638 561 616 539 616 511Z " transform="matrix(-0.2446640553183128,0.19812504549350982,-0.19812504549350982,-0.2446640553183128,935.1412852265175,535.1886533519381)" filter="url(#llleaves-blur-2)" opacity="0.48"></path><path d="M102 273H152C180 273 202 295 202 323H152C124 323 102 301 102 273Z " transform="matrix(-0.1795525096796432,-0.4444080562059868,0.4444080562059868,-0.1795525096796432,46.858380721921705,419.05667242784364)" opacity="0.74"></path><path d="M600 619H650C678 619 700 641 700 669H650C622 669 600 647 600 619Z " transform="matrix(-0.2446640553183128,0.19812504549350982,-0.19812504549350982,-0.2446640553183128,936.6241652547237,672.782372054212)" filter="url(#llleaves-blur-2)" opacity="0.48"></path><path d="M704 454H754C782 454 804 476 804 504H754C726 504 704 482 704 454Z " transform="matrix(-0.06756721265558294,0.2521642705564463,-0.2521642705564463,-0.06756721265558294,925.7323639388471,321.23283486246373)" filter="url(#llleaves-blur-3)" opacity="0.40"></path><path d="M555 269H605C633 269 655 291 655 319H605C577 319 555 297 555 269Z " transform="matrix(-0.34247977435973115,0.08538979815529493,-0.08538979815529493,-0.34247977435973115,837.304864145294,343.0282257778075)" filter="url(#llleaves-blur-2)" opacity="0.54"></path><path d="M-6 118H44C72 118 94 140 94 168H44C16 168 -6 146 -6 118Z " transform="matrix(-0.38289709289056584,-0.12441080711046569,0.12441080711046569,-0.38289709289056584,43.0567266703883,203.22835979621144)" opacity="0.62"></path><path d="M699 647H749C777 647 799 669 799 697H749C721 697 699 675 699 647Z " transform="matrix(-0.09143855823696512,0.25122537402354816,-0.25122537402354816,-0.09143855823696512,986.3109314633112,545.278905991603)" filter="url(#llleaves-blur-3)" opacity="0.41"></path><path d="M424 30H474C502 30 524 52 524 80H474C446 80 424 58 424 30Z " transform="matrix(-0.19336459830810396,-0.4343039985712186,0.4343039985712186,-0.19336459830810396,541.7680996766243,271.4951482297033)" opacity="0.73"></path><path d="M702 555H752C780 555 802 577 802 605H752C724 605 702 583 702 555Z " transform="matrix(-0.06756721265558294,0.2521642705564463,-0.2521642705564463,-0.06756721265558294,949.0658208397372,429.5614518817905)" filter="url(#llleaves-blur-3)" opacity="0.40"></path><path d="M5 221H55C83 221 105 243 105 271H55C27 271 5 249 5 221Z " transform="matrix(-0.3745051566132584,-0.17463462254729942,0.17463462254729942,-0.3745051566132584,32.63766646709355,347.7331727669631)" opacity="0.63"></path><path d="M704 132H754C782 132 804 154 804 182H754C726 182 704 160 704 132Z " transform="matrix(-0.08698471928679177,0.2526219679442788,-0.2526219679442788,-0.08698471928679177,859.2481273094927,-19.820362901959896)" filter="url(#llleaves-blur-3)" opacity="0.41"></path><path d="M628 308H678C706 308 728 330 728 358H678C650 358 628 336 628 308Z " transform="matrix(-0.20694223366899006,0.22191837616924137,-0.22191837616924137,-0.20694223366899006,892.2056536919326,251.45110476902806)" filter="url(#llleaves-blur-2)" opacity="0.46"></path><path d="M328 102H378C406 102 428 124 428 152H378C350 152 328 130 328 102Z " transform="matrix(0.09153371713109397,-0.5191135058476045,0.5191135058476045,0.09153371713109397,277.4728396818007,311.60012313474556)" opacity="0.81"></path><path d="M125 29H175C203 29 225 51 225 79H175C147 79 125 57 125 29Z " transform="matrix(-0.03529142384519317,-0.5046908741342706,0.5046908741342706,-0.03529142384519317,153.9226919696582,144.22663986113778)" opacity="0.78"></path><path d="M614 401H664C692 401 714 423 714 451H664C636 451 614 429 614 401Z " transform="matrix(-0.2446640553183128,0.19812504549350982,-0.19812504549350982,-0.2446640553183128,910.8582021115949,398.67185735791077)" filter="url(#llleaves-blur-2)" opacity="0.48"></path></g></svg>