<svg xmlns="http://www.w3.org/2000/svg" version="1.1" xmlns:xlink="http://www.w3.org/1999/xlink" xmlns:svgjs="http://svgjs.dev/svgjs" viewBox="0 0 800 800" opacity="0.6" width="800" height="800"><g stroke-width="3.5" stroke="hsla(0, 0%, 100%, 1.00)" fill="none"><rect width="14.473684210526315" height="14.473684210526315" x="-7.2368421052631575" y="-7.2368421052631575" transform="rotate(45, 0, 0)"></rect><rect width="14.473684210526315" height="14.473684210526315" x="92.76315789473685" y="-7.2368421052631575" transform="rotate(45, 100, 0)"></rect><rect width="14.473684210526315" height="14.473684210526315" x="192.76315789473685" y="-7.2368421052631575" transform="rotate(45, 200, 0)"></rect><rect width="14.473684210526315" height="14.473684210526315" x="292.7631578947368" y="-7.2368421052631575" transform="rotate(45, 300, 0)"></rect><rect width="14.473684210526315" height="14.473684210526315" x="392.7631578947368" y="-7.2368421052631575" transform="rotate(45, 400, 0)"></rect><rect width="14.473684210526315" height="14.473684210526315" x="492.7631578947368" y="-7.2368421052631575" transform="rotate(45, 500, 0)"></rect><rect width="14.473684210526315" height="14.473684210526315" x="592.7631578947369" y="-7.2368421052631575" transform="rotate(45, 600, 0)"></rect><rect width="14.473684210526315" height="14.473684210526315" x="692.7631578947369" y="-7.2368421052631575" transform="rotate(45, 700, 0)"></rect><rect width="14.473684210526315" height="14.473684210526315" x="792.7631578947369" y="-7.2368421052631575" transform="rotate(45, 800, 0)"></rect><rect width="14.473684210526315" height="14.473684210526315" x="-7.2368421052631575" y="59.429824561403514" transform="rotate(45, 0, 66.66666666666667)"></rect><rect width="14.473684210526315" height="14.473684210526315" x="92.76315789473685" y="59.429824561403514" fill="hsla(0, 0%, 100%, 1.00)" stroke="none" transform="rotate(45, 100, 66.66666666666667)"></rect><rect width="14.473684210526315" height="14.473684210526315" x="192.76315789473685" y="59.429824561403514" transform="rotate(45, 200, 66.66666666666667)"></rect><rect width="14.473684210526315" height="14.473684210526315" x="292.7631578947368" y="59.429824561403514" transform="rotate(45, 300, 66.66666666666667)"></rect><rect width="14.473684210526315" height="14.473684210526315" x="392.7631578947368" y="59.429824561403514" transform="rotate(45, 400, 66.66666666666667)"></rect><rect width="14.473684210526315" height="14.473684210526315" x="492.7631578947368" y="59.429824561403514" transform="rotate(45, 500, 66.66666666666667)"></rect><rect width="14.473684210526315" height="14.473684210526315" x="592.7631578947369" y="59.429824561403514" transform="rotate(45, 600, 66.66666666666667)"></rect><rect width="14.473684210526315" height="14.473684210526315" x="692.7631578947369" y="59.429824561403514" transform="rotate(45, 700, 66.66666666666667)"></rect><rect width="14.473684210526315" height="14.473684210526315" x="792.7631578947369" y="59.429824561403514" transform="rotate(45, 800, 66.66666666666667)"></rect><rect width="14.473684210526315" height="14.473684210526315" x="-7.2368421052631575" y="126.09649122807019" transform="rotate(45, 0, 133.33333333333334)"></rect><rect width="14.473684210526315" height="14.473684210526315" x="92.76315789473685" y="126.09649122807019" transform="rotate(45, 100, 133.33333333333334)"></rect><rect width="14.473684210526315" height="14.473684210526315" x="192.76315789473685" y="126.09649122807019" transform="rotate(45, 200, 133.33333333333334)"></rect><rect width="14.473684210526315" height="14.473684210526315" x="292.7631578947368" y="126.09649122807019" fill="hsla(0, 0%, 100%, 1.00)" stroke="none" transform="rotate(45, 300, 133.33333333333334)"></rect><rect width="14.473684210526315" height="14.473684210526315" x="392.7631578947368" y="126.09649122807019" transform="rotate(45, 400, 133.33333333333334)"></rect><rect width="14.473684210526315" height="14.473684210526315" x="492.7631578947368" y="126.09649122807019" fill="hsla(0, 0%, 100%, 1.00)" stroke="none" transform="rotate(45, 500, 133.33333333333334)"></rect><rect width="14.473684210526315" height="14.473684210526315" x="592.7631578947369" y="126.09649122807019" fill="hsla(0, 0%, 100%, 1.00)" stroke="none" transform="rotate(45, 600, 133.33333333333334)"></rect><rect width="14.473684210526315" height="14.473684210526315" x="692.7631578947369" y="126.09649122807019" transform="rotate(45, 700, 133.33333333333334)"></rect><rect width="14.473684210526315" height="14.473684210526315" x="792.7631578947369" y="126.09649122807019" transform="rotate(45, 800, 133.33333333333334)"></rect><rect width="14.473684210526315" height="14.473684210526315" x="-7.2368421052631575" y="192.76315789473685" transform="rotate(45, 0, 200)"></rect><rect width="14.473684210526315" height="14.473684210526315" x="92.76315789473685" y="192.76315789473685" fill="hsla(0, 0%, 100%, 1.00)" stroke="none" transform="rotate(45, 100, 200)"></rect><rect width="14.473684210526315" height="14.473684210526315" x="192.76315789473685" y="192.76315789473685" transform="rotate(45, 200, 200)"></rect><rect width="14.473684210526315" height="14.473684210526315" x="292.7631578947368" y="192.76315789473685" transform="rotate(45, 300, 200)"></rect><rect width="14.473684210526315" height="14.473684210526315" x="392.7631578947368" y="192.76315789473685" transform="rotate(45, 400, 200)"></rect><rect width="14.473684210526315" height="14.473684210526315" x="492.7631578947368" y="192.76315789473685" transform="rotate(45, 500, 200)"></rect><rect width="14.473684210526315" height="14.473684210526315" x="592.7631578947369" y="192.76315789473685" transform="rotate(45, 600, 200)"></rect><rect width="14.473684210526315" height="14.473684210526315" x="692.7631578947369" y="192.76315789473685" transform="rotate(45, 700, 200)"></rect><rect width="14.473684210526315" height="14.473684210526315" x="792.7631578947369" y="192.76315789473685" transform="rotate(45, 800, 200)"></rect><rect width="14.473684210526315" height="14.473684210526315" x="-7.2368421052631575" y="259.4298245614035" transform="rotate(45, 0, 266.6666666666667)"></rect><rect width="14.473684210526315" height="14.473684210526315" x="92.76315789473685" y="259.4298245614035" fill="hsla(0, 0%, 100%, 1.00)" stroke="none" transform="rotate(45, 100, 266.6666666666667)"></rect><rect width="14.473684210526315" height="14.473684210526315" x="192.76315789473685" y="259.4298245614035" fill="hsla(0, 0%, 100%, 1.00)" stroke="none" transform="rotate(45, 200, 266.6666666666667)"></rect><rect width="14.473684210526315" height="14.473684210526315" x="292.7631578947368" y="259.4298245614035" transform="rotate(45, 300, 266.6666666666667)"></rect><rect width="14.473684210526315" height="14.473684210526315" x="392.7631578947368" y="259.4298245614035" fill="hsla(0, 0%, 100%, 1.00)" stroke="none" transform="rotate(45, 400, 266.6666666666667)"></rect><rect width="14.473684210526315" height="14.473684210526315" x="492.7631578947368" y="259.4298245614035" transform="rotate(45, 500, 266.6666666666667)"></rect><rect width="14.473684210526315" height="14.473684210526315" x="592.7631578947369" y="259.4298245614035" fill="hsla(0, 0%, 100%, 1.00)" stroke="none" transform="rotate(45, 600, 266.6666666666667)"></rect><rect width="14.473684210526315" height="14.473684210526315" x="692.7631578947369" y="259.4298245614035" transform="rotate(45, 700, 266.6666666666667)"></rect><rect width="14.473684210526315" height="14.473684210526315" x="792.7631578947369" y="259.4298245614035" transform="rotate(45, 800, 266.6666666666667)"></rect><rect width="14.473684210526315" height="14.473684210526315" x="-7.2368421052631575" y="326.0964912280702" transform="rotate(45, 0, 333.33333333333337)"></rect><rect width="14.473684210526315" height="14.473684210526315" x="92.76315789473685" y="326.0964912280702" transform="rotate(45, 100, 333.33333333333337)"></rect><rect width="14.473684210526315" height="14.473684210526315" x="192.76315789473685" y="326.0964912280702" transform="rotate(45, 200, 333.33333333333337)"></rect><rect width="14.473684210526315" height="14.473684210526315" x="292.7631578947368" y="326.0964912280702" transform="rotate(45, 300, 333.33333333333337)"></rect><rect width="14.473684210526315" height="14.473684210526315" x="392.7631578947368" y="326.0964912280702" fill="hsla(0, 0%, 100%, 1.00)" stroke="none" transform="rotate(45, 400, 333.33333333333337)"></rect><rect width="14.473684210526315" height="14.473684210526315" x="492.7631578947368" y="326.0964912280702" transform="rotate(45, 500, 333.33333333333337)"></rect><rect width="14.473684210526315" height="14.473684210526315" x="592.7631578947369" y="326.0964912280702" transform="rotate(45, 600, 333.33333333333337)"></rect><rect width="14.473684210526315" height="14.473684210526315" x="692.7631578947369" y="326.0964912280702" transform="rotate(45, 700, 333.33333333333337)"></rect><rect width="14.473684210526315" height="14.473684210526315" x="792.7631578947369" y="326.0964912280702" transform="rotate(45, 800, 333.33333333333337)"></rect><rect width="14.473684210526315" height="14.473684210526315" x="-7.2368421052631575" y="392.7631578947369" transform="rotate(45, 0, 400.00000000000006)"></rect><rect width="14.473684210526315" height="14.473684210526315" x="92.76315789473685" y="392.7631578947369" transform="rotate(45, 100, 400.00000000000006)"></rect><rect width="14.473684210526315" height="14.473684210526315" x="192.76315789473685" y="392.7631578947369" transform="rotate(45, 200, 400.00000000000006)"></rect><rect width="14.473684210526315" height="14.473684210526315" x="292.7631578947368" y="392.7631578947369" fill="hsla(0, 0%, 100%, 1.00)" stroke="none" transform="rotate(45, 300, 400.00000000000006)"></rect><rect width="14.473684210526315" height="14.473684210526315" x="392.7631578947368" y="392.7631578947369" fill="hsla(0, 0%, 100%, 1.00)" stroke="none" transform="rotate(45, 400, 400.00000000000006)"></rect><rect width="14.473684210526315" height="14.473684210526315" x="492.7631578947368" y="392.7631578947369" fill="hsla(0, 0%, 100%, 1.00)" stroke="none" transform="rotate(45, 500, 400.00000000000006)"></rect><rect width="14.473684210526315" height="14.473684210526315" x="592.7631578947369" y="392.7631578947369" fill="hsla(0, 0%, 100%, 1.00)" stroke="none" transform="rotate(45, 600, 400.00000000000006)"></rect><rect width="14.473684210526315" height="14.473684210526315" x="692.7631578947369" y="392.7631578947369" fill="hsla(0, 0%, 100%, 1.00)" stroke="none" transform="rotate(45, 700, 400.00000000000006)"></rect><rect width="14.473684210526315" height="14.473684210526315" x="792.7631578947369" y="392.7631578947369" transform="rotate(45, 800, 400.00000000000006)"></rect><rect width="14.473684210526315" height="14.473684210526315" x="-7.2368421052631575" y="459.42982456140356" transform="rotate(45, 0, 466.66666666666674)"></rect><rect width="14.473684210526315" height="14.473684210526315" x="92.76315789473685" y="459.42982456140356" transform="rotate(45, 100, 466.66666666666674)"></rect><rect width="14.473684210526315" height="14.473684210526315" x="192.76315789473685" y="459.42982456140356" transform="rotate(45, 200, 466.66666666666674)"></rect><rect width="14.473684210526315" height="14.473684210526315" x="292.7631578947368" y="459.42982456140356" fill="hsla(0, 0%, 100%, 1.00)" stroke="none" transform="rotate(45, 300, 466.66666666666674)"></rect><rect width="14.473684210526315" height="14.473684210526315" x="392.7631578947368" y="459.42982456140356" transform="rotate(45, 400, 466.66666666666674)"></rect><rect width="14.473684210526315" height="14.473684210526315" x="492.7631578947368" y="459.42982456140356" transform="rotate(45, 500, 466.66666666666674)"></rect><rect width="14.473684210526315" height="14.473684210526315" x="592.7631578947369" y="459.42982456140356" fill="hsla(0, 0%, 100%, 1.00)" stroke="none" transform="rotate(45, 600, 466.66666666666674)"></rect><rect width="14.473684210526315" height="14.473684210526315" x="692.7631578947369" y="459.42982456140356" transform="rotate(45, 700, 466.66666666666674)"></rect><rect width="14.473684210526315" height="14.473684210526315" x="792.7631578947369" y="459.42982456140356" transform="rotate(45, 800, 466.66666666666674)"></rect><rect width="14.473684210526315" height="14.473684210526315" x="-7.2368421052631575" y="526.0964912280702" transform="rotate(45, 0, 533.3333333333334)"></rect><rect width="14.473684210526315" height="14.473684210526315" x="92.76315789473685" y="526.0964912280702" transform="rotate(45, 100, 533.3333333333334)"></rect><rect width="14.473684210526315" height="14.473684210526315" x="192.76315789473685" y="526.0964912280702" transform="rotate(45, 200, 533.3333333333334)"></rect><rect width="14.473684210526315" height="14.473684210526315" x="292.7631578947368" y="526.0964912280702" transform="rotate(45, 300, 533.3333333333334)"></rect><rect width="14.473684210526315" height="14.473684210526315" x="392.7631578947368" y="526.0964912280702" transform="rotate(45, 400, 533.3333333333334)"></rect><rect width="14.473684210526315" height="14.473684210526315" x="492.7631578947368" y="526.0964912280702" fill="hsla(0, 0%, 100%, 1.00)" stroke="none" transform="rotate(45, 500, 533.3333333333334)"></rect><rect width="14.473684210526315" height="14.473684210526315" x="592.7631578947369" y="526.0964912280702" transform="rotate(45, 600, 533.3333333333334)"></rect><rect width="14.473684210526315" height="14.473684210526315" x="692.7631578947369" y="526.0964912280702" transform="rotate(45, 700, 533.3333333333334)"></rect><rect width="14.473684210526315" height="14.473684210526315" x="792.7631578947369" y="526.0964912280702" transform="rotate(45, 800, 533.3333333333334)"></rect><rect width="14.473684210526315" height="14.473684210526315" x="-7.2368421052631575" y="592.7631578947369" transform="rotate(45, 0, 600)"></rect><rect width="14.473684210526315" height="14.473684210526315" x="92.76315789473685" y="592.7631578947369" transform="rotate(45, 100, 600)"></rect><rect width="14.473684210526315" height="14.473684210526315" x="192.76315789473685" y="592.7631578947369" transform="rotate(45, 200, 600)"></rect><rect width="14.473684210526315" height="14.473684210526315" x="292.7631578947368" y="592.7631578947369" fill="hsla(0, 0%, 100%, 1.00)" stroke="none" transform="rotate(45, 300, 600)"></rect><rect width="14.473684210526315" height="14.473684210526315" x="392.7631578947368" y="592.7631578947369" transform="rotate(45, 400, 600)"></rect><rect width="14.473684210526315" height="14.473684210526315" x="492.7631578947368" y="592.7631578947369" transform="rotate(45, 500, 600)"></rect><rect width="14.473684210526315" height="14.473684210526315" x="592.7631578947369" y="592.7631578947369" transform="rotate(45, 600, 600)"></rect><rect width="14.473684210526315" height="14.473684210526315" x="692.7631578947369" y="592.7631578947369" fill="hsla(0, 0%, 100%, 1.00)" stroke="none" transform="rotate(45, 700, 600)"></rect><rect width="14.473684210526315" height="14.473684210526315" x="792.7631578947369" y="592.7631578947369" transform="rotate(45, 800, 600)"></rect><rect width="14.473684210526315" height="14.473684210526315" x="-7.2368421052631575" y="659.4298245614035" transform="rotate(45, 0, 666.6666666666666)"></rect><rect width="14.473684210526315" height="14.473684210526315" x="92.76315789473685" y="659.4298245614035" transform="rotate(45, 100, 666.6666666666666)"></rect><rect width="14.473684210526315" height="14.473684210526315" x="192.76315789473685" y="659.4298245614035" transform="rotate(45, 200, 666.6666666666666)"></rect><rect width="14.473684210526315" height="14.473684210526315" x="292.7631578947368" y="659.4298245614035" transform="rotate(45, 300, 666.6666666666666)"></rect><rect width="14.473684210526315" height="14.473684210526315" x="392.7631578947368" y="659.4298245614035" fill="hsla(0, 0%, 100%, 1.00)" stroke="none" transform="rotate(45, 400, 666.6666666666666)"></rect><rect width="14.473684210526315" height="14.473684210526315" x="492.7631578947368" y="659.4298245614035" fill="hsla(0, 0%, 100%, 1.00)" stroke="none" transform="rotate(45, 500, 666.6666666666666)"></rect><rect width="14.473684210526315" height="14.473684210526315" x="592.7631578947369" y="659.4298245614035" transform="rotate(45, 600, 666.6666666666666)"></rect><rect width="14.473684210526315" height="14.473684210526315" x="692.7631578947369" y="659.4298245614035" transform="rotate(45, 700, 666.6666666666666)"></rect><rect width="14.473684210526315" height="14.473684210526315" x="792.7631578947369" y="659.4298245614035" transform="rotate(45, 800, 666.6666666666666)"></rect><rect width="14.473684210526315" height="14.473684210526315" x="-7.2368421052631575" y="726.0964912280701" transform="rotate(45, 0, 733.3333333333333)"></rect><rect width="14.473684210526315" height="14.473684210526315" x="92.76315789473685" y="726.0964912280701" transform="rotate(45, 100, 733.3333333333333)"></rect><rect width="14.473684210526315" height="14.473684210526315" x="192.76315789473685" y="726.0964912280701" transform="rotate(45, 200, 733.3333333333333)"></rect><rect width="14.473684210526315" height="14.473684210526315" x="292.7631578947368" y="726.0964912280701" transform="rotate(45, 300, 733.3333333333333)"></rect><rect width="14.473684210526315" height="14.473684210526315" x="392.7631578947368" y="726.0964912280701" transform="rotate(45, 400, 733.3333333333333)"></rect><rect width="14.473684210526315" height="14.473684210526315" x="492.7631578947368" y="726.0964912280701" transform="rotate(45, 500, 733.3333333333333)"></rect><rect width="14.473684210526315" height="14.473684210526315" x="592.7631578947369" y="726.0964912280701" transform="rotate(45, 600, 733.3333333333333)"></rect><rect width="14.473684210526315" height="14.473684210526315" x="692.7631578947369" y="726.0964912280701" fill="hsla(0, 0%, 100%, 1.00)" stroke="none" transform="rotate(45, 700, 733.3333333333333)"></rect><rect width="14.473684210526315" height="14.473684210526315" x="792.7631578947369" y="726.0964912280701" transform="rotate(45, 800, 733.3333333333333)"></rect><rect width="14.473684210526315" height="14.473684210526315" x="-7.2368421052631575" y="792.7631578947368" transform="rotate(45, 0, 799.9999999999999)"></rect><rect width="14.473684210526315" height="14.473684210526315" x="92.76315789473685" y="792.7631578947368" transform="rotate(45, 100, 799.9999999999999)"></rect><rect width="14.473684210526315" height="14.473684210526315" x="192.76315789473685" y="792.7631578947368" transform="rotate(45, 200, 799.9999999999999)"></rect><rect width="14.473684210526315" height="14.473684210526315" x="292.7631578947368" y="792.7631578947368" transform="rotate(45, 300, 799.9999999999999)"></rect><rect width="14.473684210526315" height="14.473684210526315" x="392.7631578947368" y="792.7631578947368" transform="rotate(45, 400, 799.9999999999999)"></rect><rect width="14.473684210526315" height="14.473684210526315" x="492.7631578947368" y="792.7631578947368" transform="rotate(45, 500, 799.9999999999999)"></rect><rect width="14.473684210526315" height="14.473684210526315" x="592.7631578947369" y="792.7631578947368" transform="rotate(45, 600, 799.9999999999999)"></rect><rect width="14.473684210526315" height="14.473684210526315" x="692.7631578947369" y="792.7631578947368" transform="rotate(45, 700, 799.9999999999999)"></rect><rect width="14.473684210526315" height="14.473684210526315" x="792.7631578947369" y="792.7631578947368" transform="rotate(45, 800, 799.9999999999999)"></rect></g></svg>