<svg xmlns="http://www.w3.org/2000/svg" version="1.1" xmlns:xlink="http://www.w3.org/1999/xlink" xmlns:svgjs="http://svgjs.dev/svgjs" viewBox="0 0 800 800" opacity="0.6" width="800" height="800"><g stroke-width="3.5" stroke="hsla(0, 0%, 100%, 1.00)" fill="none"><rect width="33.333333333333336" height="8.578947368421051" x="-16.666666666666668" y="-4.289473684210526" stroke="none" fill="hsla(0, 0%, 27%, 1.00)" rx="4.289473684210526"></rect><rect width="8.578947368421051" height="33.333333333333336" x="-4.289473684210526" y="-16.666666666666668" stroke="none" fill="hsla(0, 0%, 27%, 1.00)" rx="4.289473684210526"></rect><rect width="33.333333333333336" height="8.578947368421051" x="83.33333333333333" y="-4.289473684210526" stroke="none" fill="hsla(0, 0%, 100%, 1.00)" rx="4.289473684210526"></rect><rect width="8.578947368421051" height="33.333333333333336" x="95.71052631578948" y="-16.666666666666668" stroke="none" fill="hsla(0, 0%, 100%, 1.00)" rx="4.289473684210526"></rect><rect width="33.333333333333336" height="8.578947368421051" x="183.33333333333334" y="-4.289473684210526" stroke="none" fill="hsla(0, 0%, 27%, 1.00)" rx="4.289473684210526"></rect><rect width="8.578947368421051" height="33.333333333333336" x="195.71052631578948" y="-16.666666666666668" stroke="none" fill="hsla(0, 0%, 27%, 1.00)" rx="4.289473684210526"></rect><rect width="33.333333333333336" height="8.578947368421051" x="283.3333333333333" y="-4.289473684210526" stroke="none" fill="hsla(0, 0%, 100%, 1.00)" rx="4.289473684210526"></rect><rect width="8.578947368421051" height="33.333333333333336" x="295.7105263157895" y="-16.666666666666668" stroke="none" fill="hsla(0, 0%, 100%, 1.00)" rx="4.289473684210526"></rect><rect width="33.333333333333336" height="8.578947368421051" x="383.3333333333333" y="-4.289473684210526" stroke="none" fill="hsla(0, 0%, 27%, 1.00)" rx="4.289473684210526"></rect><rect width="8.578947368421051" height="33.333333333333336" x="395.7105263157895" y="-16.666666666666668" stroke="none" fill="hsla(0, 0%, 27%, 1.00)" rx="4.289473684210526"></rect><rect width="33.333333333333336" height="8.578947368421051" x="483.3333333333333" y="-4.289473684210526" stroke="none" fill="hsla(0, 0%, 100%, 1.00)" rx="4.289473684210526"></rect><rect width="8.578947368421051" height="33.333333333333336" x="495.7105263157895" y="-16.666666666666668" stroke="none" fill="hsla(0, 0%, 100%, 1.00)" rx="4.289473684210526"></rect><rect width="33.333333333333336" height="8.578947368421051" x="583.3333333333334" y="-4.289473684210526" stroke="none" fill="hsla(0, 0%, 27%, 1.00)" rx="4.289473684210526"></rect><rect width="8.578947368421051" height="33.333333333333336" x="595.7105263157895" y="-16.666666666666668" stroke="none" fill="hsla(0, 0%, 27%, 1.00)" rx="4.289473684210526"></rect><rect width="33.333333333333336" height="8.578947368421051" x="683.3333333333334" y="-4.289473684210526" stroke="none" fill="hsla(0, 0%, 100%, 1.00)" rx="4.289473684210526"></rect><rect width="8.578947368421051" height="33.333333333333336" x="695.7105263157895" y="-16.666666666666668" stroke="none" fill="hsla(0, 0%, 100%, 1.00)" rx="4.289473684210526"></rect><rect width="33.333333333333336" height="8.578947368421051" x="783.3333333333334" y="-4.289473684210526" stroke="none" fill="hsla(0, 0%, 27%, 1.00)" rx="4.289473684210526"></rect><rect width="8.578947368421051" height="33.333333333333336" x="795.7105263157895" y="-16.666666666666668" stroke="none" fill="hsla(0, 0%, 27%, 1.00)" rx="4.289473684210526"></rect><rect width="33.333333333333336" height="8.578947368421051" x="-16.666666666666668" y="62.377192982456144" stroke="none" fill="hsla(0, 0%, 100%, 1.00)" rx="4.289473684210526"></rect><rect width="8.578947368421051" height="33.333333333333336" x="-4.289473684210526" y="50" stroke="none" fill="hsla(0, 0%, 100%, 1.00)" rx="4.289473684210526"></rect><rect width="33.333333333333336" height="8.578947368421051" x="83.33333333333333" y="62.377192982456144" stroke="none" fill="hsla(0, 0%, 27%, 1.00)" rx="4.289473684210526"></rect><rect width="8.578947368421051" height="33.333333333333336" x="95.71052631578948" y="50" stroke="none" fill="hsla(0, 0%, 27%, 1.00)" rx="4.289473684210526"></rect><rect width="33.333333333333336" height="8.578947368421051" x="183.33333333333334" y="62.377192982456144" stroke="none" fill="hsla(0, 0%, 100%, 1.00)" rx="4.289473684210526"></rect><rect width="8.578947368421051" height="33.333333333333336" x="195.71052631578948" y="50" stroke="none" fill="hsla(0, 0%, 100%, 1.00)" rx="4.289473684210526"></rect><rect width="33.333333333333336" height="8.578947368421051" x="283.3333333333333" y="62.377192982456144" stroke="none" fill="hsla(0, 0%, 27%, 1.00)" rx="4.289473684210526"></rect><rect width="8.578947368421051" height="33.333333333333336" x="295.7105263157895" y="50" stroke="none" fill="hsla(0, 0%, 27%, 1.00)" rx="4.289473684210526"></rect><rect width="33.333333333333336" height="8.578947368421051" x="383.3333333333333" y="62.377192982456144" stroke="none" fill="hsla(0, 0%, 100%, 1.00)" rx="4.289473684210526"></rect><rect width="8.578947368421051" height="33.333333333333336" x="395.7105263157895" y="50" stroke="none" fill="hsla(0, 0%, 100%, 1.00)" rx="4.289473684210526"></rect><rect width="33.333333333333336" height="8.578947368421051" x="483.3333333333333" y="62.377192982456144" stroke="none" fill="hsla(0, 0%, 27%, 1.00)" rx="4.289473684210526"></rect><rect width="8.578947368421051" height="33.333333333333336" x="495.7105263157895" y="50" stroke="none" fill="hsla(0, 0%, 27%, 1.00)" rx="4.289473684210526"></rect><rect width="33.333333333333336" height="8.578947368421051" x="583.3333333333334" y="62.377192982456144" stroke="none" fill="hsla(0, 0%, 100%, 1.00)" rx="4.289473684210526"></rect><rect width="8.578947368421051" height="33.333333333333336" x="595.7105263157895" y="50" stroke="none" fill="hsla(0, 0%, 100%, 1.00)" rx="4.289473684210526"></rect><rect width="33.333333333333336" height="8.578947368421051" x="683.3333333333334" y="62.377192982456144" stroke="none" fill="hsla(0, 0%, 27%, 1.00)" rx="4.289473684210526"></rect><rect width="8.578947368421051" height="33.333333333333336" x="695.7105263157895" y="50" stroke="none" fill="hsla(0, 0%, 27%, 1.00)" rx="4.289473684210526"></rect><rect width="33.333333333333336" height="8.578947368421051" x="783.3333333333334" y="62.377192982456144" stroke="none" fill="hsla(0, 0%, 100%, 1.00)" rx="4.289473684210526"></rect><rect width="8.578947368421051" height="33.333333333333336" x="795.7105263157895" y="50" stroke="none" fill="hsla(0, 0%, 100%, 1.00)" rx="4.289473684210526"></rect><rect width="33.333333333333336" height="8.578947368421051" x="-16.666666666666668" y="129.04385964912282" stroke="none" fill="hsla(0, 0%, 27%, 1.00)" rx="4.289473684210526"></rect><rect width="8.578947368421051" height="33.333333333333336" x="-4.289473684210526" y="116.66666666666667" stroke="none" fill="hsla(0, 0%, 27%, 1.00)" rx="4.289473684210526"></rect><rect width="33.333333333333336" height="8.578947368421051" x="83.33333333333333" y="129.04385964912282" stroke="none" fill="hsla(0, 0%, 100%, 1.00)" rx="4.289473684210526"></rect><rect width="8.578947368421051" height="33.333333333333336" x="95.71052631578948" y="116.66666666666667" stroke="none" fill="hsla(0, 0%, 100%, 1.00)" rx="4.289473684210526"></rect><rect width="33.333333333333336" height="8.578947368421051" x="183.33333333333334" y="129.04385964912282" stroke="none" fill="hsla(0, 0%, 27%, 1.00)" rx="4.289473684210526"></rect><rect width="8.578947368421051" height="33.333333333333336" x="195.71052631578948" y="116.66666666666667" stroke="none" fill="hsla(0, 0%, 27%, 1.00)" rx="4.289473684210526"></rect><rect width="33.333333333333336" height="8.578947368421051" x="283.3333333333333" y="129.04385964912282" stroke="none" fill="hsla(0, 0%, 100%, 1.00)" rx="4.289473684210526"></rect><rect width="8.578947368421051" height="33.333333333333336" x="295.7105263157895" y="116.66666666666667" stroke="none" fill="hsla(0, 0%, 100%, 1.00)" rx="4.289473684210526"></rect><rect width="33.333333333333336" height="8.578947368421051" x="383.3333333333333" y="129.04385964912282" stroke="none" fill="hsla(0, 0%, 27%, 1.00)" rx="4.289473684210526"></rect><rect width="8.578947368421051" height="33.333333333333336" x="395.7105263157895" y="116.66666666666667" stroke="none" fill="hsla(0, 0%, 27%, 1.00)" rx="4.289473684210526"></rect><rect width="33.333333333333336" height="8.578947368421051" x="483.3333333333333" y="129.04385964912282" stroke="none" fill="hsla(0, 0%, 100%, 1.00)" rx="4.289473684210526"></rect><rect width="8.578947368421051" height="33.333333333333336" x="495.7105263157895" y="116.66666666666667" stroke="none" fill="hsla(0, 0%, 100%, 1.00)" rx="4.289473684210526"></rect><rect width="33.333333333333336" height="8.578947368421051" x="583.3333333333334" y="129.04385964912282" stroke="none" fill="hsla(0, 0%, 27%, 1.00)" rx="4.289473684210526"></rect><rect width="8.578947368421051" height="33.333333333333336" x="595.7105263157895" y="116.66666666666667" stroke="none" fill="hsla(0, 0%, 27%, 1.00)" rx="4.289473684210526"></rect><rect width="33.333333333333336" height="8.578947368421051" x="683.3333333333334" y="129.04385964912282" stroke="none" fill="hsla(0, 0%, 100%, 1.00)" rx="4.289473684210526"></rect><rect width="8.578947368421051" height="33.333333333333336" x="695.7105263157895" y="116.66666666666667" stroke="none" fill="hsla(0, 0%, 100%, 1.00)" rx="4.289473684210526"></rect><rect width="33.333333333333336" height="8.578947368421051" x="783.3333333333334" y="129.04385964912282" stroke="none" fill="hsla(0, 0%, 27%, 1.00)" rx="4.289473684210526"></rect><rect width="8.578947368421051" height="33.333333333333336" x="795.7105263157895" y="116.66666666666667" stroke="none" fill="hsla(0, 0%, 27%, 1.00)" rx="4.289473684210526"></rect><rect width="33.333333333333336" height="8.578947368421051" x="-16.666666666666668" y="195.71052631578948" stroke="none" fill="hsla(0, 0%, 100%, 1.00)" rx="4.289473684210526"></rect><rect width="8.578947368421051" height="33.333333333333336" x="-4.289473684210526" y="183.33333333333334" stroke="none" fill="hsla(0, 0%, 100%, 1.00)" rx="4.289473684210526"></rect><rect width="33.333333333333336" height="8.578947368421051" x="83.33333333333333" y="195.71052631578948" stroke="none" fill="hsla(0, 0%, 27%, 1.00)" rx="4.289473684210526"></rect><rect width="8.578947368421051" height="33.333333333333336" x="95.71052631578948" y="183.33333333333334" stroke="none" fill="hsla(0, 0%, 27%, 1.00)" rx="4.289473684210526"></rect><rect width="33.333333333333336" height="8.578947368421051" x="183.33333333333334" y="195.71052631578948" stroke="none" fill="hsla(0, 0%, 100%, 1.00)" rx="4.289473684210526"></rect><rect width="8.578947368421051" height="33.333333333333336" x="195.71052631578948" y="183.33333333333334" stroke="none" fill="hsla(0, 0%, 100%, 1.00)" rx="4.289473684210526"></rect><rect width="33.333333333333336" height="8.578947368421051" x="283.3333333333333" y="195.71052631578948" stroke="none" fill="hsla(0, 0%, 27%, 1.00)" rx="4.289473684210526"></rect><rect width="8.578947368421051" height="33.333333333333336" x="295.7105263157895" y="183.33333333333334" stroke="none" fill="hsla(0, 0%, 27%, 1.00)" rx="4.289473684210526"></rect><rect width="33.333333333333336" height="8.578947368421051" x="383.3333333333333" y="195.71052631578948" stroke="none" fill="hsla(0, 0%, 100%, 1.00)" rx="4.289473684210526"></rect><rect width="8.578947368421051" height="33.333333333333336" x="395.7105263157895" y="183.33333333333334" stroke="none" fill="hsla(0, 0%, 100%, 1.00)" rx="4.289473684210526"></rect><rect width="33.333333333333336" height="8.578947368421051" x="483.3333333333333" y="195.71052631578948" stroke="none" fill="hsla(0, 0%, 27%, 1.00)" rx="4.289473684210526"></rect><rect width="8.578947368421051" height="33.333333333333336" x="495.7105263157895" y="183.33333333333334" stroke="none" fill="hsla(0, 0%, 27%, 1.00)" rx="4.289473684210526"></rect><rect width="33.333333333333336" height="8.578947368421051" x="583.3333333333334" y="195.71052631578948" stroke="none" fill="hsla(0, 0%, 100%, 1.00)" rx="4.289473684210526"></rect><rect width="8.578947368421051" height="33.333333333333336" x="595.7105263157895" y="183.33333333333334" stroke="none" fill="hsla(0, 0%, 100%, 1.00)" rx="4.289473684210526"></rect><rect width="33.333333333333336" height="8.578947368421051" x="683.3333333333334" y="195.71052631578948" stroke="none" fill="hsla(0, 0%, 27%, 1.00)" rx="4.289473684210526"></rect><rect width="8.578947368421051" height="33.333333333333336" x="695.7105263157895" y="183.33333333333334" stroke="none" fill="hsla(0, 0%, 27%, 1.00)" rx="4.289473684210526"></rect><rect width="33.333333333333336" height="8.578947368421051" x="783.3333333333334" y="195.71052631578948" stroke="none" fill="hsla(0, 0%, 100%, 1.00)" rx="4.289473684210526"></rect><rect width="8.578947368421051" height="33.333333333333336" x="795.7105263157895" y="183.33333333333334" stroke="none" fill="hsla(0, 0%, 100%, 1.00)" rx="4.289473684210526"></rect><rect width="33.333333333333336" height="8.578947368421051" x="-16.666666666666668" y="262.37719298245617" stroke="none" fill="hsla(0, 0%, 27%, 1.00)" rx="4.289473684210526"></rect><rect width="8.578947368421051" height="33.333333333333336" x="-4.289473684210526" y="250.00000000000003" stroke="none" fill="hsla(0, 0%, 27%, 1.00)" rx="4.289473684210526"></rect><rect width="33.333333333333336" height="8.578947368421051" x="83.33333333333333" y="262.37719298245617" stroke="none" fill="hsla(0, 0%, 100%, 1.00)" rx="4.289473684210526"></rect><rect width="8.578947368421051" height="33.333333333333336" x="95.71052631578948" y="250.00000000000003" stroke="none" fill="hsla(0, 0%, 100%, 1.00)" rx="4.289473684210526"></rect><rect width="33.333333333333336" height="8.578947368421051" x="183.33333333333334" y="262.37719298245617" stroke="none" fill="hsla(0, 0%, 27%, 1.00)" rx="4.289473684210526"></rect><rect width="8.578947368421051" height="33.333333333333336" x="195.71052631578948" y="250.00000000000003" stroke="none" fill="hsla(0, 0%, 27%, 1.00)" rx="4.289473684210526"></rect><rect width="33.333333333333336" height="8.578947368421051" x="283.3333333333333" y="262.37719298245617" stroke="none" fill="hsla(0, 0%, 100%, 1.00)" rx="4.289473684210526"></rect><rect width="8.578947368421051" height="33.333333333333336" x="295.7105263157895" y="250.00000000000003" stroke="none" fill="hsla(0, 0%, 100%, 1.00)" rx="4.289473684210526"></rect><rect width="33.333333333333336" height="8.578947368421051" x="383.3333333333333" y="262.37719298245617" stroke="none" fill="hsla(0, 0%, 27%, 1.00)" rx="4.289473684210526"></rect><rect width="8.578947368421051" height="33.333333333333336" x="395.7105263157895" y="250.00000000000003" stroke="none" fill="hsla(0, 0%, 27%, 1.00)" rx="4.289473684210526"></rect><rect width="33.333333333333336" height="8.578947368421051" x="483.3333333333333" y="262.37719298245617" stroke="none" fill="hsla(0, 0%, 100%, 1.00)" rx="4.289473684210526"></rect><rect width="8.578947368421051" height="33.333333333333336" x="495.7105263157895" y="250.00000000000003" stroke="none" fill="hsla(0, 0%, 100%, 1.00)" rx="4.289473684210526"></rect><rect width="33.333333333333336" height="8.578947368421051" x="583.3333333333334" y="262.37719298245617" stroke="none" fill="hsla(0, 0%, 27%, 1.00)" rx="4.289473684210526"></rect><rect width="8.578947368421051" height="33.333333333333336" x="595.7105263157895" y="250.00000000000003" stroke="none" fill="hsla(0, 0%, 27%, 1.00)" rx="4.289473684210526"></rect><rect width="33.333333333333336" height="8.578947368421051" x="683.3333333333334" y="262.37719298245617" stroke="none" fill="hsla(0, 0%, 100%, 1.00)" rx="4.289473684210526"></rect><rect width="8.578947368421051" height="33.333333333333336" x="695.7105263157895" y="250.00000000000003" stroke="none" fill="hsla(0, 0%, 100%, 1.00)" rx="4.289473684210526"></rect><rect width="33.333333333333336" height="8.578947368421051" x="783.3333333333334" y="262.37719298245617" stroke="none" fill="hsla(0, 0%, 27%, 1.00)" rx="4.289473684210526"></rect><rect width="8.578947368421051" height="33.333333333333336" x="795.7105263157895" y="250.00000000000003" stroke="none" fill="hsla(0, 0%, 27%, 1.00)" rx="4.289473684210526"></rect><rect width="33.333333333333336" height="8.578947368421051" x="-16.666666666666668" y="329.04385964912285" stroke="none" fill="hsla(0, 0%, 100%, 1.00)" rx="4.289473684210526"></rect><rect width="8.578947368421051" height="33.333333333333336" x="-4.289473684210526" y="316.6666666666667" stroke="none" fill="hsla(0, 0%, 100%, 1.00)" rx="4.289473684210526"></rect><rect width="33.333333333333336" height="8.578947368421051" x="83.33333333333333" y="329.04385964912285" stroke="none" fill="hsla(0, 0%, 27%, 1.00)" rx="4.289473684210526"></rect><rect width="8.578947368421051" height="33.333333333333336" x="95.71052631578948" y="316.6666666666667" stroke="none" fill="hsla(0, 0%, 27%, 1.00)" rx="4.289473684210526"></rect><rect width="33.333333333333336" height="8.578947368421051" x="183.33333333333334" y="329.04385964912285" stroke="none" fill="hsla(0, 0%, 100%, 1.00)" rx="4.289473684210526"></rect><rect width="8.578947368421051" height="33.333333333333336" x="195.71052631578948" y="316.6666666666667" stroke="none" fill="hsla(0, 0%, 100%, 1.00)" rx="4.289473684210526"></rect><rect width="33.333333333333336" height="8.578947368421051" x="283.3333333333333" y="329.04385964912285" stroke="none" fill="hsla(0, 0%, 27%, 1.00)" rx="4.289473684210526"></rect><rect width="8.578947368421051" height="33.333333333333336" x="295.7105263157895" y="316.6666666666667" stroke="none" fill="hsla(0, 0%, 27%, 1.00)" rx="4.289473684210526"></rect><rect width="33.333333333333336" height="8.578947368421051" x="383.3333333333333" y="329.04385964912285" stroke="none" fill="hsla(0, 0%, 100%, 1.00)" rx="4.289473684210526"></rect><rect width="8.578947368421051" height="33.333333333333336" x="395.7105263157895" y="316.6666666666667" stroke="none" fill="hsla(0, 0%, 100%, 1.00)" rx="4.289473684210526"></rect><rect width="33.333333333333336" height="8.578947368421051" x="483.3333333333333" y="329.04385964912285" stroke="none" fill="hsla(0, 0%, 27%, 1.00)" rx="4.289473684210526"></rect><rect width="8.578947368421051" height="33.333333333333336" x="495.7105263157895" y="316.6666666666667" stroke="none" fill="hsla(0, 0%, 27%, 1.00)" rx="4.289473684210526"></rect><rect width="33.333333333333336" height="8.578947368421051" x="583.3333333333334" y="329.04385964912285" stroke="none" fill="hsla(0, 0%, 100%, 1.00)" rx="4.289473684210526"></rect><rect width="8.578947368421051" height="33.333333333333336" x="595.7105263157895" y="316.6666666666667" stroke="none" fill="hsla(0, 0%, 100%, 1.00)" rx="4.289473684210526"></rect><rect width="33.333333333333336" height="8.578947368421051" x="683.3333333333334" y="329.04385964912285" stroke="none" fill="hsla(0, 0%, 27%, 1.00)" rx="4.289473684210526"></rect><rect width="8.578947368421051" height="33.333333333333336" x="695.7105263157895" y="316.6666666666667" stroke="none" fill="hsla(0, 0%, 27%, 1.00)" rx="4.289473684210526"></rect><rect width="33.333333333333336" height="8.578947368421051" x="783.3333333333334" y="329.04385964912285" stroke="none" fill="hsla(0, 0%, 100%, 1.00)" rx="4.289473684210526"></rect><rect width="8.578947368421051" height="33.333333333333336" x="795.7105263157895" y="316.6666666666667" stroke="none" fill="hsla(0, 0%, 100%, 1.00)" rx="4.289473684210526"></rect><rect width="33.333333333333336" height="8.578947368421051" x="-16.666666666666668" y="395.71052631578954" stroke="none" fill="hsla(0, 0%, 27%, 1.00)" rx="4.289473684210526"></rect><rect width="8.578947368421051" height="33.333333333333336" x="-4.289473684210526" y="383.33333333333337" stroke="none" fill="hsla(0, 0%, 27%, 1.00)" rx="4.289473684210526"></rect><rect width="33.333333333333336" height="8.578947368421051" x="83.33333333333333" y="395.71052631578954" stroke="none" fill="hsla(0, 0%, 100%, 1.00)" rx="4.289473684210526"></rect><rect width="8.578947368421051" height="33.333333333333336" x="95.71052631578948" y="383.33333333333337" stroke="none" fill="hsla(0, 0%, 100%, 1.00)" rx="4.289473684210526"></rect><rect width="33.333333333333336" height="8.578947368421051" x="183.33333333333334" y="395.71052631578954" stroke="none" fill="hsla(0, 0%, 27%, 1.00)" rx="4.289473684210526"></rect><rect width="8.578947368421051" height="33.333333333333336" x="195.71052631578948" y="383.33333333333337" stroke="none" fill="hsla(0, 0%, 27%, 1.00)" rx="4.289473684210526"></rect><rect width="33.333333333333336" height="8.578947368421051" x="283.3333333333333" y="395.71052631578954" stroke="none" fill="hsla(0, 0%, 100%, 1.00)" rx="4.289473684210526"></rect><rect width="8.578947368421051" height="33.333333333333336" x="295.7105263157895" y="383.33333333333337" stroke="none" fill="hsla(0, 0%, 100%, 1.00)" rx="4.289473684210526"></rect><rect width="33.333333333333336" height="8.578947368421051" x="383.3333333333333" y="395.71052631578954" stroke="none" fill="hsla(0, 0%, 27%, 1.00)" rx="4.289473684210526"></rect><rect width="8.578947368421051" height="33.333333333333336" x="395.7105263157895" y="383.33333333333337" stroke="none" fill="hsla(0, 0%, 27%, 1.00)" rx="4.289473684210526"></rect><rect width="33.333333333333336" height="8.578947368421051" x="483.3333333333333" y="395.71052631578954" stroke="none" fill="hsla(0, 0%, 100%, 1.00)" rx="4.289473684210526"></rect><rect width="8.578947368421051" height="33.333333333333336" x="495.7105263157895" y="383.33333333333337" stroke="none" fill="hsla(0, 0%, 100%, 1.00)" rx="4.289473684210526"></rect><rect width="33.333333333333336" height="8.578947368421051" x="583.3333333333334" y="395.71052631578954" stroke="none" fill="hsla(0, 0%, 27%, 1.00)" rx="4.289473684210526"></rect><rect width="8.578947368421051" height="33.333333333333336" x="595.7105263157895" y="383.33333333333337" stroke="none" fill="hsla(0, 0%, 27%, 1.00)" rx="4.289473684210526"></rect><rect width="33.333333333333336" height="8.578947368421051" x="683.3333333333334" y="395.71052631578954" stroke="none" fill="hsla(0, 0%, 100%, 1.00)" rx="4.289473684210526"></rect><rect width="8.578947368421051" height="33.333333333333336" x="695.7105263157895" y="383.33333333333337" stroke="none" fill="hsla(0, 0%, 100%, 1.00)" rx="4.289473684210526"></rect><rect width="33.333333333333336" height="8.578947368421051" x="783.3333333333334" y="395.71052631578954" stroke="none" fill="hsla(0, 0%, 27%, 1.00)" rx="4.289473684210526"></rect><rect width="8.578947368421051" height="33.333333333333336" x="795.7105263157895" y="383.33333333333337" stroke="none" fill="hsla(0, 0%, 27%, 1.00)" rx="4.289473684210526"></rect><rect width="33.333333333333336" height="8.578947368421051" x="-16.666666666666668" y="462.3771929824562" stroke="none" fill="hsla(0, 0%, 100%, 1.00)" rx="4.289473684210526"></rect><rect width="8.578947368421051" height="33.333333333333336" x="-4.289473684210526" y="450.00000000000006" stroke="none" fill="hsla(0, 0%, 100%, 1.00)" rx="4.289473684210526"></rect><rect width="33.333333333333336" height="8.578947368421051" x="83.33333333333333" y="462.3771929824562" stroke="none" fill="hsla(0, 0%, 27%, 1.00)" rx="4.289473684210526"></rect><rect width="8.578947368421051" height="33.333333333333336" x="95.71052631578948" y="450.00000000000006" stroke="none" fill="hsla(0, 0%, 27%, 1.00)" rx="4.289473684210526"></rect><rect width="33.333333333333336" height="8.578947368421051" x="183.33333333333334" y="462.3771929824562" stroke="none" fill="hsla(0, 0%, 100%, 1.00)" rx="4.289473684210526"></rect><rect width="8.578947368421051" height="33.333333333333336" x="195.71052631578948" y="450.00000000000006" stroke="none" fill="hsla(0, 0%, 100%, 1.00)" rx="4.289473684210526"></rect><rect width="33.333333333333336" height="8.578947368421051" x="283.3333333333333" y="462.3771929824562" stroke="none" fill="hsla(0, 0%, 27%, 1.00)" rx="4.289473684210526"></rect><rect width="8.578947368421051" height="33.333333333333336" x="295.7105263157895" y="450.00000000000006" stroke="none" fill="hsla(0, 0%, 27%, 1.00)" rx="4.289473684210526"></rect><rect width="33.333333333333336" height="8.578947368421051" x="383.3333333333333" y="462.3771929824562" stroke="none" fill="hsla(0, 0%, 100%, 1.00)" rx="4.289473684210526"></rect><rect width="8.578947368421051" height="33.333333333333336" x="395.7105263157895" y="450.00000000000006" stroke="none" fill="hsla(0, 0%, 100%, 1.00)" rx="4.289473684210526"></rect><rect width="33.333333333333336" height="8.578947368421051" x="483.3333333333333" y="462.3771929824562" stroke="none" fill="hsla(0, 0%, 27%, 1.00)" rx="4.289473684210526"></rect><rect width="8.578947368421051" height="33.333333333333336" x="495.7105263157895" y="450.00000000000006" stroke="none" fill="hsla(0, 0%, 27%, 1.00)" rx="4.289473684210526"></rect><rect width="33.333333333333336" height="8.578947368421051" x="583.3333333333334" y="462.3771929824562" stroke="none" fill="hsla(0, 0%, 100%, 1.00)" rx="4.289473684210526"></rect><rect width="8.578947368421051" height="33.333333333333336" x="595.7105263157895" y="450.00000000000006" stroke="none" fill="hsla(0, 0%, 100%, 1.00)" rx="4.289473684210526"></rect><rect width="33.333333333333336" height="8.578947368421051" x="683.3333333333334" y="462.3771929824562" stroke="none" fill="hsla(0, 0%, 27%, 1.00)" rx="4.289473684210526"></rect><rect width="8.578947368421051" height="33.333333333333336" x="695.7105263157895" y="450.00000000000006" stroke="none" fill="hsla(0, 0%, 27%, 1.00)" rx="4.289473684210526"></rect><rect width="33.333333333333336" height="8.578947368421051" x="783.3333333333334" y="462.3771929824562" stroke="none" fill="hsla(0, 0%, 100%, 1.00)" rx="4.289473684210526"></rect><rect width="8.578947368421051" height="33.333333333333336" x="795.7105263157895" y="450.00000000000006" stroke="none" fill="hsla(0, 0%, 100%, 1.00)" rx="4.289473684210526"></rect><rect width="33.333333333333336" height="8.578947368421051" x="-16.666666666666668" y="529.0438596491229" stroke="none" fill="hsla(0, 0%, 27%, 1.00)" rx="4.289473684210526"></rect><rect width="8.578947368421051" height="33.333333333333336" x="-4.289473684210526" y="516.6666666666667" stroke="none" fill="hsla(0, 0%, 27%, 1.00)" rx="4.289473684210526"></rect><rect width="33.333333333333336" height="8.578947368421051" x="83.33333333333333" y="529.0438596491229" stroke="none" fill="hsla(0, 0%, 100%, 1.00)" rx="4.289473684210526"></rect><rect width="8.578947368421051" height="33.333333333333336" x="95.71052631578948" y="516.6666666666667" stroke="none" fill="hsla(0, 0%, 100%, 1.00)" rx="4.289473684210526"></rect><rect width="33.333333333333336" height="8.578947368421051" x="183.33333333333334" y="529.0438596491229" stroke="none" fill="hsla(0, 0%, 27%, 1.00)" rx="4.289473684210526"></rect><rect width="8.578947368421051" height="33.333333333333336" x="195.71052631578948" y="516.6666666666667" stroke="none" fill="hsla(0, 0%, 27%, 1.00)" rx="4.289473684210526"></rect><rect width="33.333333333333336" height="8.578947368421051" x="283.3333333333333" y="529.0438596491229" stroke="none" fill="hsla(0, 0%, 100%, 1.00)" rx="4.289473684210526"></rect><rect width="8.578947368421051" height="33.333333333333336" x="295.7105263157895" y="516.6666666666667" stroke="none" fill="hsla(0, 0%, 100%, 1.00)" rx="4.289473684210526"></rect><rect width="33.333333333333336" height="8.578947368421051" x="383.3333333333333" y="529.0438596491229" stroke="none" fill="hsla(0, 0%, 27%, 1.00)" rx="4.289473684210526"></rect><rect width="8.578947368421051" height="33.333333333333336" x="395.7105263157895" y="516.6666666666667" stroke="none" fill="hsla(0, 0%, 27%, 1.00)" rx="4.289473684210526"></rect><rect width="33.333333333333336" height="8.578947368421051" x="483.3333333333333" y="529.0438596491229" stroke="none" fill="hsla(0, 0%, 100%, 1.00)" rx="4.289473684210526"></rect><rect width="8.578947368421051" height="33.333333333333336" x="495.7105263157895" y="516.6666666666667" stroke="none" fill="hsla(0, 0%, 100%, 1.00)" rx="4.289473684210526"></rect><rect width="33.333333333333336" height="8.578947368421051" x="583.3333333333334" y="529.0438596491229" stroke="none" fill="hsla(0, 0%, 27%, 1.00)" rx="4.289473684210526"></rect><rect width="8.578947368421051" height="33.333333333333336" x="595.7105263157895" y="516.6666666666667" stroke="none" fill="hsla(0, 0%, 27%, 1.00)" rx="4.289473684210526"></rect><rect width="33.333333333333336" height="8.578947368421051" x="683.3333333333334" y="529.0438596491229" stroke="none" fill="hsla(0, 0%, 100%, 1.00)" rx="4.289473684210526"></rect><rect width="8.578947368421051" height="33.333333333333336" x="695.7105263157895" y="516.6666666666667" stroke="none" fill="hsla(0, 0%, 100%, 1.00)" rx="4.289473684210526"></rect><rect width="33.333333333333336" height="8.578947368421051" x="783.3333333333334" y="529.0438596491229" stroke="none" fill="hsla(0, 0%, 27%, 1.00)" rx="4.289473684210526"></rect><rect width="8.578947368421051" height="33.333333333333336" x="795.7105263157895" y="516.6666666666667" stroke="none" fill="hsla(0, 0%, 27%, 1.00)" rx="4.289473684210526"></rect><rect width="33.333333333333336" height="8.578947368421051" x="-16.666666666666668" y="595.7105263157895" stroke="none" fill="hsla(0, 0%, 100%, 1.00)" rx="4.289473684210526"></rect><rect width="8.578947368421051" height="33.333333333333336" x="-4.289473684210526" y="583.3333333333334" stroke="none" fill="hsla(0, 0%, 100%, 1.00)" rx="4.289473684210526"></rect><rect width="33.333333333333336" height="8.578947368421051" x="83.33333333333333" y="595.7105263157895" stroke="none" fill="hsla(0, 0%, 27%, 1.00)" rx="4.289473684210526"></rect><rect width="8.578947368421051" height="33.333333333333336" x="95.71052631578948" y="583.3333333333334" stroke="none" fill="hsla(0, 0%, 27%, 1.00)" rx="4.289473684210526"></rect><rect width="33.333333333333336" height="8.578947368421051" x="183.33333333333334" y="595.7105263157895" stroke="none" fill="hsla(0, 0%, 100%, 1.00)" rx="4.289473684210526"></rect><rect width="8.578947368421051" height="33.333333333333336" x="195.71052631578948" y="583.3333333333334" stroke="none" fill="hsla(0, 0%, 100%, 1.00)" rx="4.289473684210526"></rect><rect width="33.333333333333336" height="8.578947368421051" x="283.3333333333333" y="595.7105263157895" stroke="none" fill="hsla(0, 0%, 27%, 1.00)" rx="4.289473684210526"></rect><rect width="8.578947368421051" height="33.333333333333336" x="295.7105263157895" y="583.3333333333334" stroke="none" fill="hsla(0, 0%, 27%, 1.00)" rx="4.289473684210526"></rect><rect width="33.333333333333336" height="8.578947368421051" x="383.3333333333333" y="595.7105263157895" stroke="none" fill="hsla(0, 0%, 100%, 1.00)" rx="4.289473684210526"></rect><rect width="8.578947368421051" height="33.333333333333336" x="395.7105263157895" y="583.3333333333334" stroke="none" fill="hsla(0, 0%, 100%, 1.00)" rx="4.289473684210526"></rect><rect width="33.333333333333336" height="8.578947368421051" x="483.3333333333333" y="595.7105263157895" stroke="none" fill="hsla(0, 0%, 27%, 1.00)" rx="4.289473684210526"></rect><rect width="8.578947368421051" height="33.333333333333336" x="495.7105263157895" y="583.3333333333334" stroke="none" fill="hsla(0, 0%, 27%, 1.00)" rx="4.289473684210526"></rect><rect width="33.333333333333336" height="8.578947368421051" x="583.3333333333334" y="595.7105263157895" stroke="none" fill="hsla(0, 0%, 100%, 1.00)" rx="4.289473684210526"></rect><rect width="8.578947368421051" height="33.333333333333336" x="595.7105263157895" y="583.3333333333334" stroke="none" fill="hsla(0, 0%, 100%, 1.00)" rx="4.289473684210526"></rect><rect width="33.333333333333336" height="8.578947368421051" x="683.3333333333334" y="595.7105263157895" stroke="none" fill="hsla(0, 0%, 27%, 1.00)" rx="4.289473684210526"></rect><rect width="8.578947368421051" height="33.333333333333336" x="695.7105263157895" y="583.3333333333334" stroke="none" fill="hsla(0, 0%, 27%, 1.00)" rx="4.289473684210526"></rect><rect width="33.333333333333336" height="8.578947368421051" x="783.3333333333334" y="595.7105263157895" stroke="none" fill="hsla(0, 0%, 100%, 1.00)" rx="4.289473684210526"></rect><rect width="8.578947368421051" height="33.333333333333336" x="795.7105263157895" y="583.3333333333334" stroke="none" fill="hsla(0, 0%, 100%, 1.00)" rx="4.289473684210526"></rect><rect width="33.333333333333336" height="8.578947368421051" x="-16.666666666666668" y="662.3771929824561" stroke="none" fill="hsla(0, 0%, 27%, 1.00)" rx="4.289473684210526"></rect><rect width="8.578947368421051" height="33.333333333333336" x="-4.289473684210526" y="650" stroke="none" fill="hsla(0, 0%, 27%, 1.00)" rx="4.289473684210526"></rect><rect width="33.333333333333336" height="8.578947368421051" x="83.33333333333333" y="662.3771929824561" stroke="none" fill="hsla(0, 0%, 100%, 1.00)" rx="4.289473684210526"></rect><rect width="8.578947368421051" height="33.333333333333336" x="95.71052631578948" y="650" stroke="none" fill="hsla(0, 0%, 100%, 1.00)" rx="4.289473684210526"></rect><rect width="33.333333333333336" height="8.578947368421051" x="183.33333333333334" y="662.3771929824561" stroke="none" fill="hsla(0, 0%, 27%, 1.00)" rx="4.289473684210526"></rect><rect width="8.578947368421051" height="33.333333333333336" x="195.71052631578948" y="650" stroke="none" fill="hsla(0, 0%, 27%, 1.00)" rx="4.289473684210526"></rect><rect width="33.333333333333336" height="8.578947368421051" x="283.3333333333333" y="662.3771929824561" stroke="none" fill="hsla(0, 0%, 100%, 1.00)" rx="4.289473684210526"></rect><rect width="8.578947368421051" height="33.333333333333336" x="295.7105263157895" y="650" stroke="none" fill="hsla(0, 0%, 100%, 1.00)" rx="4.289473684210526"></rect><rect width="33.333333333333336" height="8.578947368421051" x="383.3333333333333" y="662.3771929824561" stroke="none" fill="hsla(0, 0%, 27%, 1.00)" rx="4.289473684210526"></rect><rect width="8.578947368421051" height="33.333333333333336" x="395.7105263157895" y="650" stroke="none" fill="hsla(0, 0%, 27%, 1.00)" rx="4.289473684210526"></rect><rect width="33.333333333333336" height="8.578947368421051" x="483.3333333333333" y="662.3771929824561" stroke="none" fill="hsla(0, 0%, 100%, 1.00)" rx="4.289473684210526"></rect><rect width="8.578947368421051" height="33.333333333333336" x="495.7105263157895" y="650" stroke="none" fill="hsla(0, 0%, 100%, 1.00)" rx="4.289473684210526"></rect><rect width="33.333333333333336" height="8.578947368421051" x="583.3333333333334" y="662.3771929824561" stroke="none" fill="hsla(0, 0%, 27%, 1.00)" rx="4.289473684210526"></rect><rect width="8.578947368421051" height="33.333333333333336" x="595.7105263157895" y="650" stroke="none" fill="hsla(0, 0%, 27%, 1.00)" rx="4.289473684210526"></rect><rect width="33.333333333333336" height="8.578947368421051" x="683.3333333333334" y="662.3771929824561" stroke="none" fill="hsla(0, 0%, 100%, 1.00)" rx="4.289473684210526"></rect><rect width="8.578947368421051" height="33.333333333333336" x="695.7105263157895" y="650" stroke="none" fill="hsla(0, 0%, 100%, 1.00)" rx="4.289473684210526"></rect><rect width="33.333333333333336" height="8.578947368421051" x="783.3333333333334" y="662.3771929824561" stroke="none" fill="hsla(0, 0%, 27%, 1.00)" rx="4.289473684210526"></rect><rect width="8.578947368421051" height="33.333333333333336" x="795.7105263157895" y="650" stroke="none" fill="hsla(0, 0%, 27%, 1.00)" rx="4.289473684210526"></rect><rect width="33.333333333333336" height="8.578947368421051" x="-16.666666666666668" y="729.0438596491227" stroke="none" fill="hsla(0, 0%, 100%, 1.00)" rx="4.289473684210526"></rect><rect width="8.578947368421051" height="33.333333333333336" x="-4.289473684210526" y="716.6666666666666" stroke="none" fill="hsla(0, 0%, 100%, 1.00)" rx="4.289473684210526"></rect><rect width="33.333333333333336" height="8.578947368421051" x="83.33333333333333" y="729.0438596491227" stroke="none" fill="hsla(0, 0%, 27%, 1.00)" rx="4.289473684210526"></rect><rect width="8.578947368421051" height="33.333333333333336" x="95.71052631578948" y="716.6666666666666" stroke="none" fill="hsla(0, 0%, 27%, 1.00)" rx="4.289473684210526"></rect><rect width="33.333333333333336" height="8.578947368421051" x="183.33333333333334" y="729.0438596491227" stroke="none" fill="hsla(0, 0%, 100%, 1.00)" rx="4.289473684210526"></rect><rect width="8.578947368421051" height="33.333333333333336" x="195.71052631578948" y="716.6666666666666" stroke="none" fill="hsla(0, 0%, 100%, 1.00)" rx="4.289473684210526"></rect><rect width="33.333333333333336" height="8.578947368421051" x="283.3333333333333" y="729.0438596491227" stroke="none" fill="hsla(0, 0%, 27%, 1.00)" rx="4.289473684210526"></rect><rect width="8.578947368421051" height="33.333333333333336" x="295.7105263157895" y="716.6666666666666" stroke="none" fill="hsla(0, 0%, 27%, 1.00)" rx="4.289473684210526"></rect><rect width="33.333333333333336" height="8.578947368421051" x="383.3333333333333" y="729.0438596491227" stroke="none" fill="hsla(0, 0%, 100%, 1.00)" rx="4.289473684210526"></rect><rect width="8.578947368421051" height="33.333333333333336" x="395.7105263157895" y="716.6666666666666" stroke="none" fill="hsla(0, 0%, 100%, 1.00)" rx="4.289473684210526"></rect><rect width="33.333333333333336" height="8.578947368421051" x="483.3333333333333" y="729.0438596491227" stroke="none" fill="hsla(0, 0%, 27%, 1.00)" rx="4.289473684210526"></rect><rect width="8.578947368421051" height="33.333333333333336" x="495.7105263157895" y="716.6666666666666" stroke="none" fill="hsla(0, 0%, 27%, 1.00)" rx="4.289473684210526"></rect><rect width="33.333333333333336" height="8.578947368421051" x="583.3333333333334" y="729.0438596491227" stroke="none" fill="hsla(0, 0%, 100%, 1.00)" rx="4.289473684210526"></rect><rect width="8.578947368421051" height="33.333333333333336" x="595.7105263157895" y="716.6666666666666" stroke="none" fill="hsla(0, 0%, 100%, 1.00)" rx="4.289473684210526"></rect><rect width="33.333333333333336" height="8.578947368421051" x="683.3333333333334" y="729.0438596491227" stroke="none" fill="hsla(0, 0%, 27%, 1.00)" rx="4.289473684210526"></rect><rect width="8.578947368421051" height="33.333333333333336" x="695.7105263157895" y="716.6666666666666" stroke="none" fill="hsla(0, 0%, 27%, 1.00)" rx="4.289473684210526"></rect><rect width="33.333333333333336" height="8.578947368421051" x="783.3333333333334" y="729.0438596491227" stroke="none" fill="hsla(0, 0%, 100%, 1.00)" rx="4.289473684210526"></rect><rect width="8.578947368421051" height="33.333333333333336" x="795.7105263157895" y="716.6666666666666" stroke="none" fill="hsla(0, 0%, 100%, 1.00)" rx="4.289473684210526"></rect><rect width="33.333333333333336" height="8.578947368421051" x="-16.666666666666668" y="795.7105263157894" stroke="none" fill="hsla(0, 0%, 27%, 1.00)" rx="4.289473684210526"></rect><rect width="8.578947368421051" height="33.333333333333336" x="-4.289473684210526" y="783.3333333333333" stroke="none" fill="hsla(0, 0%, 27%, 1.00)" rx="4.289473684210526"></rect><rect width="33.333333333333336" height="8.578947368421051" x="83.33333333333333" y="795.7105263157894" stroke="none" fill="hsla(0, 0%, 100%, 1.00)" rx="4.289473684210526"></rect><rect width="8.578947368421051" height="33.333333333333336" x="95.71052631578948" y="783.3333333333333" stroke="none" fill="hsla(0, 0%, 100%, 1.00)" rx="4.289473684210526"></rect><rect width="33.333333333333336" height="8.578947368421051" x="183.33333333333334" y="795.7105263157894" stroke="none" fill="hsla(0, 0%, 27%, 1.00)" rx="4.289473684210526"></rect><rect width="8.578947368421051" height="33.333333333333336" x="195.71052631578948" y="783.3333333333333" stroke="none" fill="hsla(0, 0%, 27%, 1.00)" rx="4.289473684210526"></rect><rect width="33.333333333333336" height="8.578947368421051" x="283.3333333333333" y="795.7105263157894" stroke="none" fill="hsla(0, 0%, 100%, 1.00)" rx="4.289473684210526"></rect><rect width="8.578947368421051" height="33.333333333333336" x="295.7105263157895" y="783.3333333333333" stroke="none" fill="hsla(0, 0%, 100%, 1.00)" rx="4.289473684210526"></rect><rect width="33.333333333333336" height="8.578947368421051" x="383.3333333333333" y="795.7105263157894" stroke="none" fill="hsla(0, 0%, 27%, 1.00)" rx="4.289473684210526"></rect><rect width="8.578947368421051" height="33.333333333333336" x="395.7105263157895" y="783.3333333333333" stroke="none" fill="hsla(0, 0%, 27%, 1.00)" rx="4.289473684210526"></rect><rect width="33.333333333333336" height="8.578947368421051" x="483.3333333333333" y="795.7105263157894" stroke="none" fill="hsla(0, 0%, 100%, 1.00)" rx="4.289473684210526"></rect><rect width="8.578947368421051" height="33.333333333333336" x="495.7105263157895" y="783.3333333333333" stroke="none" fill="hsla(0, 0%, 100%, 1.00)" rx="4.289473684210526"></rect><rect width="33.333333333333336" height="8.578947368421051" x="583.3333333333334" y="795.7105263157894" stroke="none" fill="hsla(0, 0%, 27%, 1.00)" rx="4.289473684210526"></rect><rect width="8.578947368421051" height="33.333333333333336" x="595.7105263157895" y="783.3333333333333" stroke="none" fill="hsla(0, 0%, 27%, 1.00)" rx="4.289473684210526"></rect><rect width="33.333333333333336" height="8.578947368421051" x="683.3333333333334" y="795.7105263157894" stroke="none" fill="hsla(0, 0%, 100%, 1.00)" rx="4.289473684210526"></rect><rect width="8.578947368421051" height="33.333333333333336" x="695.7105263157895" y="783.3333333333333" stroke="none" fill="hsla(0, 0%, 100%, 1.00)" rx="4.289473684210526"></rect><rect width="33.333333333333336" height="8.578947368421051" x="783.3333333333334" y="795.7105263157894" stroke="none" fill="hsla(0, 0%, 27%, 1.00)" rx="4.289473684210526"></rect><rect width="8.578947368421051" height="33.333333333333336" x="795.7105263157895" y="783.3333333333333" stroke="none" fill="hsla(0, 0%, 27%, 1.00)" rx="4.289473684210526"></rect></g></svg>