<svg xmlns="http://www.w3.org/2000/svg" version="1.1" xmlns:xlink="http://www.w3.org/1999/xlink" xmlns:svgjs="http://svgjs.dev/svgjs" viewBox="0 0 800 800"><defs><filter id="ssspot-filter" x="-20%" y="-20%" width="140%" height="140%" filterUnits="objectBoundingBox" primitiveUnits="userSpaceOnUse" color-interpolation-filters="sRGB">
	<feTurbulence type="turbulence" baseFrequency="0.022 0.218" numOctaves="2" seed="152" stitchTiles="stitch" x="0%" y="0%" width="100%" height="100%" result="turbulence"></feTurbulence>
	<feGaussianBlur stdDeviation="0 3" x="0%" y="0%" width="100%" height="100%" in="turbulence" edgeMode="duplicate" result="blur"></feGaussianBlur>
	<feDisplacementMap in="SourceGraphic" in2="blur" scale="32" xChannelSelector="R" yChannelSelector="B" x="0%" y="0%" width="100%" height="100%" result="displacementMap"></feDisplacementMap>
</filter></defs><rect width="100%" height="100%" fill=""></rect><g fill="hsl(0, 0%, 90%)" filter="url(#ssspot-filter)"><circle r="9.259235515953065" cx="360.2705735230178" cy="530.2696128712126" opacity="0.8429280468313824"></circle><circle r="16.129759045627704" cx="354.3262359929692" cy="362.60480093616985" opacity="0.17977286497890077"></circle><circle r="9.17147494821834" cx="40.765764387612876" cy="89.25091466953326" opacity="0.7466365655991581"></circle><circle r="8.464903971376472" cx="681.5759999148017" cy="422.7022893425277" opacity="0.10803096833501552"></circle><circle r="9.399648519152482" cx="137.58969693374922" cy="618.7412557558098" opacity="0.20182054843478675"></circle><circle r="6.03237964706601" cx="364.171799565948" cy="784.3738981594843" opacity="0.6942873528177044"></circle><circle r="11.58930859204128" cx="683.9375840404484" cy="269.23833183205323" opacity="0.6657763260851104"></circle><circle r="6.6750150974696565" cx="574.8286967121146" cy="774.2527839056665" opacity="0.5901155600001702"></circle><circle r="13.62527447191589" cx="111.00483673660395" cy="33.92566695706298" opacity="0.5719670834661049"></circle><circle r="11.110026926492816" cx="297.4176174366964" cy="613.5216123679205" opacity="0.6289036003892946"></circle><circle r="7.246989157475504" cx="257.02415814607195" cy="465.91476914012435" opacity="0.42442744814612987"></circle><circle r="13.447614313822683" cx="650.7198106026993" cy="461.3795793923157" opacity="0.4647686171894161"></circle><circle r="12.002619425991263" cx="587.0914160586861" cy="603.8994921133889" opacity="0.6993899217320095"></circle><circle r="9.645753341804367" cx="90.05524343821007" cy="724.6570183539432" opacity="0.4369329713370833"></circle><circle r="5.763196329691469" cx="216.10491186826883" cy="19.670458428540474" opacity="0.47521456598855427"></circle><circle r="8.940578278609301" cx="142.94924743418784" cy="89.5011060952432" opacity="0.9069049511279478"></circle><circle r="10.120345224037678" cx="215.0411059845659" cy="563.344042646335" opacity="0.3318488653017157"></circle><circle r="11.836354842844134" cx="531.3418650254321" cy="476.32503417355645" opacity="0.6403460378777905"></circle><circle r="8.336724484145758" cx="498.6904915915994" cy="282.04162561908765" opacity="0.511833155163355"></circle><circle r="11.763227173740573" cx="740.0097657911" cy="607.7629786651894" opacity="0.4435616139643188"></circle><circle r="11.793451615817027" cx="299.80451494139044" cy="662.8201431279575" opacity="0.18165646357572904"></circle><circle r="9.463125458377771" cx="394.83362186605723" cy="481.7923263639879" opacity="0.30277904653003573"></circle><circle r="9.088814287015424" cx="116.39120815577643" cy="201.52219898698664" opacity="0.26820537524521804"></circle><circle r="16.78322496755148" cx="278.5638391199213" cy="364.93458459252594" opacity="0.702558295408065"></circle><circle r="8.929997928955753" cx="418.1636035171702" cy="338.6693731484973" opacity="0.2978116441920452"></circle><circle r="19.150453533468603" cx="642.844100267832" cy="655.8383303418159" opacity="0.8324631421695273"></circle><circle r="6.833970939273015" cx="734.0871985310771" cy="503.50810493824747" opacity="0.3177121937145726"></circle><circle r="10.86224028118184" cx="509.0821974209438" cy="425.5800800481099" opacity="0.8289531573302433"></circle><circle r="12.228717365327059" cx="179.097261879984" cy="241.86180119837465" opacity="0.8317237933058642"></circle><circle r="12.296281933861602" cx="432.2823017718116" cy="193.16321035345746" opacity="0.6210803436735308"></circle><circle r="14.779954696175565" cx="262.94062752744424" cy="163.68409327151696" opacity="0.4587211899901512"></circle><circle r="16.803804737537853" cx="401.97089331032873" cy="273.7745815279835" opacity="0.7308749323611103"></circle><circle r="8.461207364621732" cx="676.089752499451" cy="316.090580222642" opacity="0.5491795210303779"></circle><circle r="10.212570865964302" cx="440.1359014270743" cy="577.1187639711484" opacity="0.3711813760872964"></circle><circle r="6.109106144709944" cx="177.36027353886578" cy="579.5361989139445" opacity="0.23154685845478723"></circle><circle r="17.50717657075868" cx="108.48078334334943" cy="358.66648831615686" opacity="0.841438368956473"></circle><circle r="10.459733403251436" cx="432.03134612278296" cy="87.78038619671936" opacity="0.6001465634145129"></circle><circle r="13.930761785627226" cx="37.35194941279391" cy="29.472394678999148" opacity="0.3211288872084872"></circle><circle r="14.94143987066381" cx="707.8235470807906" cy="690.8068967846675" opacity="0.9720304429927434"></circle><circle r="10.470168794695113" cx="28.71072128908056" cy="239.5237300988059" opacity="0.6280911299872968"></circle><circle r="9.300342588579138" cx="221.6265804044774" cy="201.35034317852438" opacity="0.37029781511121884"></circle><circle r="6.941567774198985" cx="300.2977970048142" cy="739.5869699952843" opacity="0.6884456443310621"></circle><circle r="17.628123990181166" cx="487.02811788186875" cy="762.5916602618091" opacity="0.36373408820740916"></circle><circle r="9.00165824114349" cx="429.14892973705963" cy="734.7975817106803" opacity="0.5988385934989554"></circle><circle r="11.501819831267634" cx="325.36523856410633" cy="234.3140361296061" opacity="0.8745817655647082"></circle><circle r="11.145871731104505" cx="36.68072532782178" cy="160.8332718276489" opacity="0.1990082170457621"></circle><circle r="10.721329613348281" cx="262.6765176309601" cy="511.54274178508" opacity="0.8017647215164118"></circle><circle r="8.975047252504353" cx="589.0358335624505" cy="476.1221486787854" opacity="0.6205320281843689"></circle><circle r="11.351005053370333" cx="773.7424874854854" cy="413.27954305011497" opacity="0.5625187191339452"></circle><circle r="9.797810066693868" cx="458.9655606600556" cy="378.36951791309633" opacity="0.6558216762769944"></circle><circle r="9.491326959130422" cx="483.5605970142803" cy="244.69727981784655" opacity="0.6183389926009979"></circle><circle r="7.383839317206874" cx="112.16770318404956" cy="775.2883193483474" opacity="0.8831439508980494"></circle><circle r="10.16600121795561" cx="760.5496494164105" cy="462.75042807650357" opacity="0.5999374519080845"></circle><circle r="15.420897059510452" cx="604.0760281073368" cy="724.4691678859864" opacity="0.4033691760066853"></circle><circle r="19.905019231286154" cx="93.58804378086678" cy="270.6126227843489" opacity="0.3844053141439635"></circle><circle r="8.901036151980257" cx="657.9678985530333" cy="220.95483881431983" opacity="0.8621397788377865"></circle><circle r="8.659673622745458" cx="342.0230227755919" cy="140.20064303825447" opacity="0.679158709467096"></circle><circle r="10.285663646112434" cx="766.3387062363287" cy="762.9573612658771" opacity="0.5085260354790254"></circle><circle r="10.828121141631101" cx="195.20596643959792" cy="509.2843675391716" opacity="0.4750374430732591"></circle><circle r="10.76279335684262" cx="256.2090972046982" cy="585.3615017264559" opacity="0.498687535709016"></circle><circle r="12.23434274367104" cx="585.6071903387377" cy="239.13883786760724" opacity="0.9775188444758736"></circle><circle r="12.388081162198418" cx="724.0992733445534" cy="175.89456295522976" opacity="0.2155760836504485"></circle><circle r="14.615474603601525" cx="652.8620085037799" cy="162.50157631656705" opacity="0.689899774764836"></circle><circle r="6.7739919527681" cx="730.7862289143072" cy="293.25882836333847" opacity="0.3487555999767449"></circle><circle r="8.99157661191062" cx="210.0508710652352" cy="418.9885610254597" opacity="0.6832594255927857"></circle><circle r="9.648049023211795" cx="182.73101337093414" cy="695.5920604747768" opacity="0.4228661963161602"></circle><circle r="17.233476473994237" cx="686.4802712416981" cy="764.951610111381" opacity="0.11712507933981284"></circle><circle r="8.45103652613912" cx="779.0097149129339" cy="304.43378673449644" opacity="0.8682660409202015"></circle><circle r="8.847524868796897" cx="168.936015959196" cy="468.6731052959269" opacity="0.33916915645234574"></circle><circle r="7.89614734514697" cx="233.64844332136684" cy="639.1029318357615" opacity="0.33848749271945733"></circle><circle r="8.4898570687467" cx="689.5452264605295" cy="516.948280913259" opacity="0.7632045734582277"></circle><circle r="9.48185017336619" cx="263.8564482340222" cy="421.09784235040013" opacity="0.7257193817997313"></circle><circle r="12.796211944311697" cx="610.1277848644257" cy="400.04348667168927" opacity="0.22278177443687291"></circle><circle r="15.451766124573297" cx="34.555768860109374" cy="659.6624402436834" opacity="0.10284321393795426"></circle><circle r="8.172328434381825" cx="594.0927899653958" cy="32.34083534326191" opacity="0.7970109428460403"></circle><circle r="14.772235837068017" cx="94.85609890300869" cy="132.15820405919845" opacity="0.17298517109463118"></circle><circle r="9.203936313930363" cx="575.2455959694748" cy="296.72470645679454" opacity="0.8227844087191701"></circle><circle r="10.918818110173415" cx="724.2878121027088" cy="230.85157303302083" opacity="0.19358247287313182"></circle><circle r="12.729626795931747" cx="256.9522374098788" cy="693.6448198315411" opacity="0.9952102267160688"></circle><circle r="11.21225650390118" cx="675.9196834676152" cy="23.449903324798314" opacity="0.9224722711409422"></circle><circle r="15.33910978075161" cx="130.36694268046483" cy="429.71939987255655" opacity="0.4473409087477982"></circle><circle r="8.16129458693157" cx="220.82284586478602" cy="110.4132666615019" opacity="0.34159487902552577"></circle><circle r="15.716908825277287" cx="36.52519781565202" cy="558.9074847285455" opacity="0.17547937725493248"></circle><circle r="9.621420612652042" cx="483.91507362708825" cy="126.48130952168826" opacity="0.2317760149194307"></circle><circle r="7.762484600598097" cx="634.4788158088168" cy="280.7763076759035" opacity="0.15296056981052775"></circle><circle r="18.517582705000724" cx="440.23384579661524" cy="653.0594042369199" opacity="0.3492211693807129"></circle><circle r="9.469825581015668" cx="280.30897666077743" cy="286.16459633490695" opacity="0.6552721269986981"></circle><circle r="10.305872913270878" cx="30.955886930522958" cy="760.2559238248817" opacity="0.5396364785025021"></circle><circle r="6.1549063860608895" cx="513.3618205653011" cy="320.4900358617947" opacity="0.5635529831647024"></circle><circle r="12.782498850199012" cx="628.0522427037126" cy="335.8103650856629" opacity="0.7123834458644168"></circle><circle r="10.025392289180552" cx="710.6485348292504" cy="344.1035361429707" opacity="0.1428826017046839"></circle><circle r="9.538825330622359" cx="761.6472105125711" cy="38.66786244972596" opacity="0.9717480504529644"></circle><circle r="12.0107817694063" cx="767.724136520173" cy="354.7600135054233" opacity="0.9434073708367255"></circle><circle r="11.654145718530005" cx="531.7927874581795" cy="60.41238012657363" opacity="0.678424610493053"></circle><circle r="15.857539094719606" cx="670.6519807618911" cy="80.25981485340124" opacity="0.8700793640716042"></circle><circle r="10.89152006161016" cx="381.30471830438677" cy="46.12135680747718" opacity="0.9774565491195777"></circle><circle r="14.360937124519452" cx="158.36341157410766" cy="148.70867488491348" opacity="0.1950018834112035"></circle><circle r="14.097445214733094" cx="561.103280047803" cy="173.18932588280455" opacity="0.6569088098227025"></circle><circle r="9.84802001024679" cx="243.53746130286063" cy="758.7624790510407" opacity="0.23390682543257596"></circle><circle r="8.1195243904642" cx="669.7860665472043" cy="371.559502387256" opacity="0.12091350418427549"></circle><circle r="13.350903258064015" cx="497.7021813347754" cy="193.44780060139874" opacity="0.4516469199494785"></circle><circle r="8.25683018009286" cx="354.3411908026712" cy="595.0831509714106" opacity="0.33002265413465226"></circle><circle r="9.235376405772367" cx="180.20088158957302" cy="47.997008127286115" opacity="0.7730413152880029"></circle><circle r="11.101238510333198" cx="300.3024991710892" cy="542.25620667954" opacity="0.6863791474323022"></circle><circle r="14.472270254750248" cx="179.39069925989145" cy="762.9293576241593" opacity="0.6214121710527558"></circle><circle r="18.57047569604799" cx="523.3094448841802" cy="670.2550805841032" opacity="0.5428034281626043"></circle><circle r="9.16858983068069" cx="459.56439654853494" cy="24.75776677171874" opacity="0.32517268083026474"></circle><circle r="16.926084987331052" cx="34.43322808045811" cy="344.504748647133" opacity="0.15973629397863026"></circle><circle r="16.595174029118496" cx="642.2130702070419" cy="555.7756789666207" opacity="0.2939137128934288"></circle><circle r="11.4149285867416" cx="370.15635544839637" cy="708.1004083418737" opacity="0.6082550945844912"></circle><circle r="6.490034108039696" cx="775.1517528366071" cy="244.52216671432967" opacity="0.45077998479939474"></circle><circle r="9.22391677822626" cx="466.31182443506066" cy="503.1646271628562" opacity="0.25836867539271824"></circle><circle r="8.577743177254995" cx="182.40412818506738" cy="641.7645251087547" opacity="0.6336865201839977"></circle><circle r="10.385178343644522" cx="381.77889274452417" cy="179.21404120725182" opacity="0.36491592234019543"></circle><circle r="12.310345859440986" cx="527.3403117992474" cy="559.6044393102214" opacity="0.6089567149102523"></circle><circle r="13.098121915814168" cx="365.70735244899106" cy="653.0003772612486" opacity="0.881523677446221"></circle><circle r="8.503870471706929" cx="724.3926968588734" cy="399.0641653386775" opacity="0.13655673042175567"></circle><circle r="13.384309970778265" cx="189.93473182532773" cy="367.2762467001442" opacity="0.9088393747428597"></circle><circle r="6.611011627520204" cx="524.6644787005988" cy="374.68411411227817" opacity="0.7513073952004532"></circle><circle r="12.596564875692255" cx="263.84565102748627" cy="48.52951102832258" opacity="0.6279040914199039"></circle><circle r="14.951500697351111" cx="193.64942848612256" cy="304.7066050456058" opacity="0.27249538313724586"></circle><circle r="9.364039896246336" cx="778.7001513798538" cy="162.35564270235687" opacity="0.8755686754462919"></circle><circle r="16.847665566091948" cx="332.3022014686248" cy="443.90514306284484" opacity="0.5097393002198392"></circle><circle r="8.780484210511027" cx="107.13082289919328" cy="662.9097743906894" opacity="0.13119385844782683"></circle><circle r="13.712482104579983" cx="603.6212186082715" cy="112.17935154452785" opacity="0.7218216287190554"></circle><circle r="13.629432673012705" cx="310.06609653481496" cy="93.93865996922369" opacity="0.9295776111359171"></circle><circle r="22.591175205565165" cx="44.24853164280423" cy="449.29035860529945" opacity="0.2083448551624274"></circle><circle r="12.419902180198031" cx="323.66980563003875" cy="26.274613720410287" opacity="0.8231073192132194"></circle><circle r="9.697669458858664" cx="104.99415085064372" cy="511.1025213326323" opacity="0.8769225391716697"></circle><circle r="11.420951693133699" cx="773.2835646280738" cy="683.5567205837316" opacity="0.20581624972132317"></circle><circle r="7.346837855648404" cx="344.22935628060907" cy="752.7912761828278" opacity="0.43010832923325915"></circle><circle r="7.21369627205907" cx="772.3995147359301" cy="542.1392348957689" opacity="0.27896037653924194"></circle><circle r="9.510784221461506" cx="740.3553391454446" cy="105.48834387897915" opacity="0.8834508412295818"></circle><circle r="13.315867223936351" cx="429.2917291272424" cy="433.0696365222599" opacity="0.732940997435702"></circle><circle r="8.134010662662467" cx="115.53887819620047" cy="572.7887009949811" opacity="0.26304024260302794"></circle><circle r="11.466696225955065" cx="573.6116816503122" cy="358.1540703925177" opacity="0.6390431536722129"></circle></g></svg>